<svg width="770" height="264" viewBox="0 0 770 264" fill="none" xmlns="http://www.w3.org/2000/svg">
<path d="M769.209 248C769.209 246.17 769.059 244.28 767.379 243.24C764.099 241.24 764.649 239.32 766.779 236.59C770.359 231.98 770.779 227.2 767.779 223.53C764.969 220.12 764.599 216.53 764.939 212.48C765.939 201.07 766.399 189.63 766.609 178.18C767.049 154.11 766.829 154.18 757.709 131.9C751.549 116.9 743.589 102.76 736.649 88.1496C734.779 84.2396 731.929 81.4496 727.239 80.9796C708.97 79.0885 690.584 78.5804 672.239 79.4596C657.459 80.2196 642.639 80.5696 627.829 80.2096C617.369 79.9496 606.919 79.4496 596.459 79.2896C592.149 79.2096 591.829 79.6896 591.709 84.0596C591.262 99.4529 590.866 114.846 590.519 130.24C589.919 156.906 589.339 183.553 588.779 210.18C588.669 215.44 588.679 215.44 583.469 215.11C579.089 214.83 578.999 214.75 578.469 210.31C578.369 209.53 578.339 208.74 578.309 207.95C577.899 194.95 577.309 181.95 577.149 168.88C576.529 117.546 575.996 66.2129 575.549 14.8796C575.449 4.4496 575.549 4.5296 564.879 3.8796C550.279 3.0196 535.689 2.3896 521.119 4.2696C512.889 5.3296 504.669 6.8696 496.369 6.5796C482.929 6.1096 469.509 6.3696 456.109 6.9996C441.314 7.63849 426.494 7.3312 411.739 6.0796C405.419 5.5796 399.129 5.0796 392.829 5.8196C385.965 6.64722 379.051 6.98141 372.139 6.8196C347.479 6.0396 322.829 4.8696 298.139 4.3996C276.999 3.9996 255.859 3.4496 234.739 4.5196C230.417 4.90456 226.073 4.99477 221.739 4.7896C210.739 3.7896 199.739 3.2496 188.629 3.2496C172.029 3.2496 155.439 3.2496 138.859 2.8196C116.379 2.2696 93.9489 0.129598 71.3989 1.3096C51.089 2.3696 30.7189 1.8796 10.3989 1.6696C2.22895 1.5796 1.24893 2.6696 0.628928 10.6696C0.0422913 19.535 -0.0145203 28.4275 0.458884 37.2996C1.24888 56.4396 0.968884 75.6096 0.708884 94.7596C0.398884 116.88 1.02895 138.99 1.64895 161.1C1.80895 166.81 0.838967 172.61 1.41897 178.25C2.98897 193.47 2.27889 208.59 1.08889 223.77C0.155556 235.77 -0.177778 247.806 0.0888889 259.88C0.0888889 261.17 -0.371087 262.7 1.73891 263.88C4.73891 260.74 6.81891 256.67 9.48891 253.13C12.1589 249.59 13.6589 245.38 17.8889 242.58C18.4789 246.09 19.059 248.98 19.419 251.88C19.679 253.95 20.6089 254.74 22.5689 254.03C27.9489 252.09 33.5689 252.9 39.0189 253.03C48.0889 253.21 57.1489 253.51 66.2189 252.36C72.2889 251.6 78.4389 251.41 84.4889 252.93C88.4889 253.93 91.489 252.37 93.779 249.26C94.949 247.68 95.9089 245.95 96.9689 244.26C102.629 235.46 108.296 226.656 113.969 217.85C115.669 215.22 117.739 213.2 121.369 213.04C131.109 207.81 145.899 209.88 155.549 212.32C169.689 215.89 183.859 224.23 188.349 238.63C188.229 237.69 188.079 236.76 187.899 235.8C188.299 235.72 188.689 235.62 189.089 235.52C190.479 238.71 191.939 241.85 193.259 245.08C194.939 249.19 197.819 251.14 202.349 251.29C210.029 251.54 217.709 252.2 225.349 252.62C230.969 252.93 232.959 252.35 236.579 248.45C237.579 245.29 238.429 242.07 239.479 238.93C238.899 238.44 239.199 237.8 239.479 237.24C239.589 237 239.939 236.86 240.209 236.69V236.57H240.289C240.289 235.69 240.109 234.72 241.179 234.37C241.269 234.15 241.369 233.93 241.459 233.72C241.412 233.403 241.457 233.079 241.588 232.787C241.719 232.494 241.931 232.245 242.199 232.07C242.449 231.53 242.719 230.99 242.989 230.47V230.35C243.985 228.414 245.171 226.581 246.529 224.88C253.929 215.65 265.239 214.68 276.289 214.12C284.789 213.68 296.349 211.59 303.949 216.81V216.72C303.664 216.604 303.424 216.4 303.265 216.136C303.107 215.873 303.038 215.565 303.069 215.26L303.009 215.31V215.21C302.519 214.69 302.639 215.75 302.619 214.95C302.62 214.852 302.643 214.756 302.689 214.67C303.039 214.67 303.139 214.9 303.009 215.21C303.639 214.68 304.179 215.04 304.719 215.42C307.019 216.99 308.039 219.27 309.029 222.78C310.199 225.441 311.139 228.198 311.839 231.02C312.519 233.34 313.379 235.58 314.269 237.82C314.339 237.48 314.433 237.146 314.549 236.82C316.299 241.35 317.999 245.89 319.819 250.39C322.049 255.93 323.219 257 329.129 256.47C353.039 254.33 376.889 257.14 400.759 256.98C409.669 256.92 418.349 259.48 427.299 259.17C433.229 258.96 439.229 259.26 444.989 257.82C452.829 255.82 460.649 256.27 468.509 256.82C496.889 258.96 525.329 259.1 553.779 258.99C560.299 258.99 566.819 258.99 573.339 258.99C580.029 258.99 586.699 258.89 593.339 260.25C599.979 261.61 601.449 260.31 603.589 253.78C605.899 246.73 608.099 239.62 612.439 233.55C612.916 232.541 613.597 231.642 614.439 230.91L614.669 230.71L614.719 230.65C614.707 230.598 614.69 230.548 614.669 230.5L614.779 230.57C614.949 230.3 615.109 230.01 615.269 229.74C615.269 229.85 615.369 229.97 615.419 230.08C627.759 219.94 645.739 219.77 660.959 218.62C667.659 218.11 675.509 217.93 681.329 221.62C681.076 221.268 680.9 220.868 680.812 220.444C680.724 220.02 680.726 219.582 680.819 219.16C681.02 219.077 681.236 219.034 681.454 219.035C681.672 219.036 681.888 219.08 682.089 219.164C682.289 219.249 682.471 219.373 682.624 219.528C682.777 219.683 682.898 219.867 682.979 220.07C689.369 230.26 697.099 239.63 701.829 250.82C703.829 255.45 707.159 258.03 712.149 258.51C715.106 258.665 718.053 258.972 720.979 259.43C735.539 262.43 750.099 260.53 764.639 259.43C769.639 259.04 769.639 258.7 769.199 253.87C769.169 251.93 769.209 249.94 769.209 248ZM567.069 14.7496C567.259 12.9896 567.299 10.6496 569.569 10.7496C571.839 10.8496 571.009 13.1596 571.019 14.5396C571.119 24.6196 570.929 34.7096 571.189 44.7796C571.669 62.7296 573.189 80.6396 572.709 98.6396C571.809 129.25 572.599 159.87 573.929 190.46C574.189 196.57 574.549 202.68 574.799 208.8C574.859 210.23 575.349 211.98 573.329 212.65C571.849 211.9 572.269 210.59 572.239 209.51C571.039 179.72 568.859 149.96 569.919 120.11C570.129 114.2 570.539 108.28 570.919 102.37C571.679 90.0896 570.319 77.8896 569.519 65.6696C568.432 49.3229 567.626 32.9563 567.099 16.5696C567.042 15.9646 567.032 15.3561 567.069 14.7496ZM559.319 9.7496C561.429 9.7496 561.999 10.7496 562.049 12.6196C562.229 19.3296 562.529 26.0396 562.689 32.7396C563.179 53.4696 563.609 74.1796 564.209 102.04C564.699 120.74 565.359 146.57 566.029 172.44C566.029 173.63 566.099 174.82 566.089 176C566.089 177.6 566.229 179.36 563.679 178.93C561.949 178.63 560.079 178.69 560.269 175.99C560.709 170.16 560.919 164.33 561.389 158.51C561.503 157.838 561.482 157.15 561.325 156.487C561.169 155.824 560.881 155.199 560.479 154.65C559.929 153.91 559.109 152.86 560.159 152.09C563.159 149.93 562.049 147.97 560.319 145.63C558.169 142.73 557.469 139.63 560.049 136.43C560.69 135.785 561.049 134.913 561.049 134.005C561.049 133.096 560.69 132.224 560.049 131.58C557.969 129.27 558.129 126.49 558.049 123.75C557.829 108.936 557.639 94.1329 557.479 79.3396C557.296 76.7726 557.485 74.1927 558.039 71.6796C559.869 65.3796 559.149 59.2496 557.879 53.0096C556.779 47.5596 556.819 42.0096 556.879 36.4796C556.919 28.5863 556.919 20.6929 556.879 12.7996C556.829 11.0596 557.059 9.7996 559.319 9.7896V9.7496ZM561.499 187.22C560.829 185.7 561.619 185.05 562.919 184.71C564.599 184.25 565.629 184.82 565.619 186.65C565.569 192.71 565.489 198.79 565.409 204.85C565.199 205.07 564.999 205.48 564.789 205.48C564.189 205.48 564.019 205 563.979 204.48C561.669 200.48 560.039 196.33 562.149 191.7C562.899 190.06 562.109 188.68 561.499 187.26V187.22ZM554.499 187.03C546.409 186.6 539.329 185.83 532.269 185.93C517.079 186.1 501.889 187.34 486.709 187.03C453.709 186.36 420.789 187.03 387.839 186.39C386.099 186.39 384.289 186.49 383.009 184.88C384.789 183.09 387.009 183.25 389.169 183.34C407.919 184.12 426.669 182.88 445.409 183.1C479.756 183.513 514.089 183.91 548.409 184.29C550.319 184.35 552.319 184.17 554.469 187.07L554.499 187.03ZM449.269 193.24C406.559 194.79 386.389 194.49 382.139 192.24C388.889 190.6 417.579 191 449.239 193.28L449.269 193.24ZM379.739 175.93C380.099 174.23 381.479 174.56 382.559 174.56C408.999 174.4 435.439 174.47 461.869 175.51C470.929 175.87 480.009 176.07 489.089 176.34C498.549 176.246 508.009 176.16 517.469 176.08C526.359 176.01 535.239 175.92 544.119 175.89C546.269 175.89 548.399 176.09 551.929 176.28C549.652 177.232 547.174 177.6 544.719 177.35C530.719 177.35 516.719 177.24 502.719 177.07C498.199 177.01 493.719 178.07 489.159 177.07C474.759 177.38 460.339 178.48 445.949 177.07C436.689 176.15 427.429 175.16 418.199 176.3C407.199 177.66 396.129 177.3 385.089 177.39C383.259 177.35 381.079 178.12 379.739 175.93ZM382.509 199.3C439.039 200.93 495.639 198.06 551.919 202.61C551.399 202.8 552.479 202.38 552.169 203.11C552.129 203.186 552.072 203.253 552.003 203.305C551.934 203.357 551.854 203.393 551.769 203.41C550.009 203.5 548.239 203.66 546.479 203.62L382.479 200.51C382.529 200.1 382.529 199.7 382.549 199.3H382.509ZM550.739 195C546.799 194.95 542.869 194.73 538.929 194.65C523.199 194.35 507.449 194.11 491.709 193.82C489.549 193.77 487.399 193.61 485.239 193.5C508.239 190.16 530.999 193.29 553.839 192.45C553.559 194.92 552.089 195 550.739 195ZM553.619 168.43C553.619 170.52 550.729 169.79 549.069 169.81C522.659 170.17 496.259 170.09 469.849 168.32C444.069 166.6 418.189 167.77 392.349 168.25C388.804 168.434 385.274 168.838 381.779 169.46C379.979 169.72 379.209 169.07 379.159 167.3C379.109 165.53 379.159 164.11 381.519 164.15C384.679 164.2 387.839 164.15 390.989 164.15L454.149 165.27C494.149 165.87 521.539 166.27 548.939 166.78C550.599 166.83 553.639 165.49 553.619 168.42V168.43ZM372.719 110.43C371.409 109.84 371.719 108.43 372.059 107.3C372.524 105.795 372.908 104.266 373.209 102.72C373.439 101.13 373.389 99.5796 371.459 98.8096C369.869 98.1996 368.459 97.9196 367.019 99.1096C366.232 99.7051 365.523 100.397 364.909 101.17C363.289 103.44 361.739 103.86 358.989 102.46C354.299 100.05 352.919 100.64 348.779 105.06C346.719 101.91 343.719 100.96 340.189 101.38C338.927 101.551 337.643 101.437 336.432 101.046C335.22 100.655 334.112 99.9965 333.189 99.1196C329.819 96.2796 325.049 97.6396 321.189 101.9C318.819 104.54 319.059 108.74 321.689 111.57C324.029 114.08 327.099 114.19 329.939 113.41C333.479 112.41 335.059 113.48 335.719 116.93C336.241 119.034 336.872 121.11 337.609 123.15C338.889 127.34 338.769 127.58 334.329 128.45C323.729 130.55 313.059 129.45 302.419 129.17C280.099 128.503 257.766 128.24 235.419 128.38C204.999 128.63 174.569 129.29 144.209 126.54C143.209 126.45 142.299 126.25 140.849 126.03C142.579 114.74 144.209 103.69 145.989 92.6596C147.239 84.9096 147.319 84.9196 155.379 84.9196C188.569 84.9196 221.769 84.4396 254.949 85.1296C293.069 85.9296 331.199 87.5096 369.289 86.6096C393.779 86.0296 418.229 86.2696 442.699 86.2296C477.459 86.2296 512.219 87.0396 546.959 88.4796C551.959 88.6696 552.019 88.6696 552.029 93.8196C552.029 104.893 552.029 115.96 552.029 127.02C552.029 131.22 551.929 131.32 547.859 131.29C506.369 131.06 464.859 130.97 423.409 130.44C405.049 130.21 386.699 129.14 368.409 127.44C367.239 127.33 366.049 127.23 364.879 127.06C364.049 126.93 363.269 126.4 363.269 125.59C363.369 122.427 363.88 119.29 364.789 116.26C365.029 115.4 365.939 115.42 366.789 115.54C367.956 115.724 369.137 115.804 370.319 115.78C371.819 115.72 373.779 116.42 374.599 114.69C375.609 112.74 374.739 111.32 372.739 110.41L372.719 110.43ZM358.459 148.51C360.189 148.51 363.229 147.41 363.159 150.37C363.069 153.83 359.909 152.12 358.159 152.03C328.779 150.58 299.379 150.03 258.059 150.19L182.929 152C181.549 152 180.149 151.94 178.779 152.08C175.779 152.42 175.189 150.82 175.179 148.19C175.179 145.19 176.979 145.25 179.079 145.35C193.279 146.04 207.469 147.03 221.679 147.3C244.179 147.72 266.679 147.64 289.199 147.82C312.286 147.98 335.372 148.203 358.459 148.49V148.51ZM342.269 111.63C346.659 117.84 351.549 117 356.269 109.53C359.809 113.77 359.849 118.89 356.349 122.39C352.349 126.33 347.429 125.9 344.509 121.23C342.739 118.38 341.569 115.33 342.269 111.61V111.63ZM330.169 106.22C330.143 106.355 330.09 106.483 330.013 106.597C329.935 106.71 329.835 106.807 329.719 106.88C329.603 106.953 329.472 107.001 329.336 107.022C329.2 107.043 329.062 107.035 328.929 107C328.788 106.978 328.655 106.923 328.54 106.839C328.424 106.755 328.331 106.645 328.267 106.518C328.204 106.39 328.171 106.25 328.173 106.107C328.176 105.965 328.212 105.825 328.279 105.7C328.386 105.544 328.525 105.413 328.687 105.316C328.85 105.219 329.031 105.159 329.219 105.14C329.899 105 330.279 105.4 330.169 106.2V106.22ZM63.169 187.22C61.789 187.22 60.4089 187.22 59.0189 187.22C57.4589 187.22 56.2889 187.61 56.3689 189.5C56.4389 191.07 57.489 191.39 58.779 191.5C60.779 191.59 62.7189 191.72 64.6889 191.83C72.7789 191.11 80.6889 193.45 88.6889 193.15C91.4289 193.06 94.1789 193.15 96.9289 193.15C86.1289 193.22 75.339 194.03 64.539 193.38C60.299 193.58 56.029 193.71 51.789 193.99C48.139 194.22 48.1389 194.28 48.2289 198.53C63.3989 198.53 78.5589 198.37 93.7089 199.9C88.5289 199.9 83.349 199.83 78.169 199.9C70.099 200.06 62.0189 200.38 53.9589 200.55C52.0189 200.55 49.9589 200.92 48.1389 199.98C43.6089 199.92 39.069 199.88 34.529 199.77C32.1477 199.737 29.7731 199.509 27.4289 199.09C29.5789 198.94 31.7189 198.73 33.8489 198.66C35.4089 198.61 36.579 198.25 36.659 196.44C36.729 194.44 35.3389 194.29 33.8789 194.25C30.7289 194.17 27.569 194.12 24.419 193.99C24.0347 194.043 23.643 193.987 23.2892 193.828C22.9354 193.669 22.6337 193.413 22.419 193.09C22.899 190.87 24.7989 191.56 26.1989 191.51C33.2989 191.25 40.3989 191.09 47.4989 190.87C48.6822 190.834 49.8617 190.717 51.029 190.52C51.919 190.37 53.219 190.52 53.029 189.03C52.839 187.54 51.5889 187.97 50.7089 187.93C42.0389 187.56 33.3589 187.32 24.7089 186.85C22.4189 186.73 18.5689 187.64 18.9789 183.85C19.3089 180.65 22.8889 182.11 24.9789 182.09C48.4789 181.97 71.9789 182.09 95.4589 181.93C103.951 181.934 112.434 182.472 120.859 183.54C129.493 184.583 138.221 184.6 146.859 183.59C149.018 183.369 151.189 183.279 153.359 183.32C154.601 183.251 155.841 183.503 156.958 184.051C158.075 184.599 159.033 185.425 159.739 186.45C157.599 187.66 155.639 187.23 153.829 187.23C123.582 187.203 93.359 187.18 63.159 187.16L63.169 187.22ZM152.749 193.29C141.119 194.29 129.489 193.49 120.559 193.29C118.199 193.34 116.019 193.35 114.089 193.29C116.019 193.22 118.199 193.29 120.559 193.29C129.479 193.06 141.099 192.41 152.739 193.23L152.749 193.29ZM21.0189 175.4C31.1989 174.3 40.5689 172.52 49.8989 175.79C39.7389 177.33 26.9689 177.26 21.0089 175.34L21.0189 175.4ZM61.7689 176.89C67.7689 174.34 73.3989 173.79 79.0189 173.71C100.939 173.34 122.819 174.61 144.709 175.63C148.824 175.768 152.928 176.145 156.999 176.76C141.259 178.04 125.539 176.62 109.839 176.19C94.1389 175.76 78.2789 177.07 61.7389 176.83L61.7689 176.89ZM75.419 149.89C58.419 149.71 41.499 149.66 24.539 149.52C22.9689 149.501 21.4045 149.327 19.8689 149C19.1834 148.852 18.5792 148.45 18.1784 147.875C17.7775 147.3 17.6097 146.594 17.7089 145.9C17.7989 144.18 18.8389 143.52 20.4689 143.54C21.8389 143.54 23.2189 143.54 24.5989 143.54H89.7389C112.026 143.54 134.312 143.54 156.599 143.54C161.099 143.54 161.659 143.13 161.039 148.54C160.829 150.35 159.849 150.8 158.279 150.8C154.539 150.8 150.789 150.8 147.049 150.8C123.129 150.42 99.269 150.08 75.409 149.85L75.419 149.89ZM135.139 156.54C96.5389 158.14 58.0089 159.62 19.5889 156.96C19.3289 154.53 20.759 154.52 21.789 154.27C26.0315 153.314 30.3899 152.977 34.7289 153.27C67.0289 155.02 99.3989 154.27 131.729 156.16C132.829 156.21 133.979 156.38 135.129 156.5L135.139 156.54ZM129.279 23.8696C130.01 26.772 130.15 29.7921 129.689 32.7496C131.389 34.8696 133.879 34.4796 136.139 34.6996C138.039 34.8996 140.139 34.4896 141.339 36.8896C137.659 38.8896 133.419 38.6996 129.339 40.0596C128.139 37.5796 128.659 35.1596 129.129 32.7496C128.449 30.1996 128.869 27.7096 129.269 23.8296L129.279 23.8696ZM131.359 21.3896C131.639 21.2396 131.919 21.1096 132.209 20.9696L132.399 20.7596H132.549C134.089 19.0696 135.919 19.5696 138.549 20.1596C136.618 20.8034 134.569 21.0084 132.549 20.7596L132.469 20.8396L132.209 20.9696C132.069 21.151 131.915 21.3215 131.749 21.4796C131.679 21.4896 131.479 21.3796 131.349 21.3496L131.359 21.3896ZM139.999 54.8796C129.779 56.1396 127.709 55.2896 127.899 49.8796C130.739 54.0996 135.899 51.9396 139.989 54.8396L139.999 54.8796ZM128.999 85.1496C129.309 83.8196 129.729 82.4896 129.999 81.1496C130.419 78.9996 131.999 78.8996 133.609 79.1496C135.219 79.3996 135.029 80.8296 134.879 81.9296C134.052 88.1896 133.176 94.4429 132.249 100.69C131.249 107.69 129.849 114.69 129.119 121.75C128.759 125.2 127.649 126.87 124.119 126.61C122.799 126.51 121.459 127.42 119.599 126.29C120.959 120.37 122.369 114.29 123.739 108.22C125.459 100.513 127.196 92.8096 128.949 85.1096L128.999 85.1496ZM122.739 40.6396C122.419 45.5296 122.059 50.4196 121.739 55.3096C121.319 60.8296 121.049 60.9396 115.379 57.2496C119.469 54.3296 120.459 50.5996 120.569 46.2496C120.729 39.9896 121.399 33.7296 121.889 27.4796C122.039 25.5896 121.989 23.5996 123.989 21.4796C123.519 28.2996 123.159 34.4696 122.739 40.6396ZM113.129 48.9996C110.809 48.5396 110.599 46.2796 109.559 44.7896C108.519 43.2996 108.869 42.4796 110.849 42.1296C113.269 41.7096 112.669 39.3896 112.849 37.7996C113.629 31.9496 113.429 25.9996 115.179 20.3696C116.739 25.4296 115.169 43.5496 113.129 48.9996ZM550.989 159.28L550.899 160.58C548.459 160.58 545.999 160.65 543.559 160.58C512.409 159.58 481.249 159.47 450.089 159.36C427.989 159.27 405.899 158.76 383.819 158.36C382.239 158.36 379.309 159.19 379.409 157.03C379.519 154.32 382.519 155.51 384.079 155.83C391.909 157.47 399.809 157.11 407.679 156.95C434.509 156.4 461.309 158.15 488.139 158.38C505.899 158.54 523.659 158.38 541.419 158.38C544.633 158.297 547.846 158.599 550.989 159.28ZM384.989 148.76C401.342 148.333 417.702 148.246 434.069 148.5C461.869 148.93 489.629 150.5 517.399 151.71C522.849 150.71 528.089 152.85 533.469 153.11H535.469C534.803 153.144 534.135 153.144 533.469 153.11H521.059C519.679 153.11 518.289 153.02 517.239 151.91C507.239 152.79 497.179 152.42 487.129 152.38C470.969 152.38 454.789 152.12 438.619 151.93C420.086 151.73 401.552 151.496 383.019 151.23C381.729 151.23 380.359 151.43 378.869 150.23C380.839 148.24 383.059 148.81 385.029 148.76H384.989ZM443.739 12.3996C451.739 12.3996 459.849 12.4796 467.899 12.5296C478.589 11.7696 489.279 11.0596 499.999 11.4396L544.869 10.1596C547.149 10.0796 549.599 9.6896 551.589 12.8996C542.589 13.7396 534.099 12.6296 525.589 12.7996C517.079 12.9696 508.669 12.6996 500.199 12.6296C497.199 13.7896 493.999 13.5296 490.859 13.5396C483.189 13.5396 475.519 13.5396 467.859 13.5396L440.929 14.6696C440.799 11.8696 442.569 12.3996 443.739 12.3996ZM439.009 14.0596C433.449 15.0096 428.889 15.2596 423.359 13.8196C429.009 11.8196 434.089 11.8896 438.989 14.0596H439.009ZM398.349 11.5196C406.809 11.8596 415.269 12.1929 423.729 12.5196C421.149 15.4496 418.199 14.1296 415.389 14.0796C412.579 14.0296 409.509 13.8696 406.569 13.6696C403.629 13.4696 400.779 13.8796 398.079 13.0896C398.159 12.5896 398.239 12.0496 398.329 11.5196H398.349ZM411.819 66.9996C432.559 66.4696 453.249 68.3396 473.979 68.3696C478.319 68.3696 482.669 68.4696 486.979 68.2696C507.729 67.3296 528.429 69.6796 549.159 69.0896C552.249 68.9996 552.819 70.0096 552.509 73.0896C552.339 74.8896 551.399 75.3996 549.789 75.3596C546.789 75.2996 543.879 75.2796 540.909 75.2396C507.909 74.8296 474.909 75.2396 441.999 73.7796C409.999 72.3896 378.059 75.1196 346.079 74.0696C323.592 73.3229 301.092 72.8496 278.579 72.6496C254.489 72.3996 230.409 73.1996 206.329 73.6496C188.559 73.9696 170.769 73.7496 152.999 73.7096C148.689 73.7096 148.689 73.5996 146.629 66.9096C163.909 67.1396 180.689 66.3596 197.439 67.4496C205.119 67.9596 212.809 68.5596 220.509 68.3296C241.849 67.6696 263.149 69.0596 284.509 69.2196C326.929 69.4896 369.379 68.1196 411.819 66.9996ZM11.9489 6.9996C22.0089 6.9996 32.0789 7.3796 42.1389 7.5296C57.7389 7.7696 73.3289 6.4096 88.9289 6.9496C120.869 8.0696 152.839 9.4296 184.809 9.7796C209.499 10.0396 234.189 9.8596 258.809 10.1896C293.949 10.6396 329.069 11.4296 364.209 11.9596C371.699 12.0796 379.209 11.6996 386.709 11.6196C387.709 11.6196 389.019 11.2396 390.539 13.9196C384.029 13.9196 378.319 13.8296 372.599 13.9196C368.45 13.8658 364.314 14.408 360.319 15.5296C358.041 16.1539 355.663 16.3272 353.319 16.0396C314.709 12.5996 276.019 12.9796 237.319 13.1896C187.579 13.4596 137.839 11.4796 88.0889 11.6996C64.4089 11.8096 40.7389 12.1196 17.0889 12.2996C10.4289 12.2996 9.5789 13.0796 9.7289 19.9196C10.4089 51.9196 9.29896 83.9196 11.539 115.83C11.769 118.97 11.539 122.14 11.539 125.29C11.539 127.4 10.7589 128.54 8.39895 128.53C5.79895 128.53 6.27891 126.73 6.23891 125.26C6.06891 117.36 5.82886 109.47 5.80886 101.58C5.72886 72.1463 5.69555 42.7196 5.70888 13.2996C5.73888 7.3396 5.84887 6.9996 11.9489 7.0696V6.9996ZM95.4489 32.2796C95.9189 37.7396 95.5689 43.2796 95.5689 48.6296C93.3989 49.1296 93.009 47.8696 93.039 46.7296C93.199 38.0796 94.609 29.5596 95.419 20.9796H96.779C97.8689 22.9796 98.9489 24.9796 100.369 27.6296C96.7389 27.5496 95.1389 28.6596 95.4489 32.3496V32.2796ZM83.8689 67.8096H84.4689C86.0189 67.8096 87.8289 67.5796 87.6889 70.0196C87.5489 72.4596 85.629 71.8896 84.169 72.0196C82.999 72.1096 81.8089 72.0196 80.6289 72.0196H21.5689C20.1989 72.0196 18.8089 72.0196 17.4389 71.8796C17.048 71.8488 16.6847 71.6663 16.4268 71.371C16.1688 71.0756 16.0367 70.6911 16.0589 70.2996C16.0132 69.9066 16.1021 69.5098 16.3109 69.1739C16.5198 68.8379 16.8363 68.5826 17.2089 68.4496C18.5361 68.112 19.8995 67.9374 21.2689 67.9296C42.1423 67.9096 63.0089 67.8929 83.8689 67.8796V67.8096ZM65.1889 50.9996C65.5189 49.5196 66.769 49.4696 67.909 49.2196C72.329 48.3196 74.5289 45.2796 75.3989 41.1296C76.3989 36.5196 77.2089 31.8896 78.0889 27.2696C78.4889 25.2696 78.8989 23.1596 79.3289 20.9096C80.1589 21.4496 80.7389 21.6196 80.7689 21.9096C81.7689 28.7096 82.3889 35.5796 80.3789 42.2496C78.5289 48.3096 72.2689 51.6896 65.1889 50.9996ZM13.7389 231.16C13.2589 240.51 11.7389 244.16 4.64895 251.75C7.21895 213.68 7.02889 176.41 6.33889 139.14C6.33889 137.95 6.24889 136.76 6.33889 135.58C6.42889 134.4 5.73894 132.41 7.26894 131.97C9.34894 131.35 10.4189 133.25 11.0989 134.85C11.562 136.133 11.8054 137.485 11.8189 138.85C13.1089 169.63 15.3389 200.36 13.7389 231.16ZM15.4389 88.3096C15.2089 85.1096 16.4389 84.6096 19.0889 84.8096C31.6989 85.7296 44.3189 85.2796 56.9289 84.8096C69.7289 84.4596 82.5389 83.8096 95.3489 84.8096C100.519 85.2196 100.659 85.2096 100.289 90.2796C99.549 100.28 98.679 110.28 97.789 120.34C97.219 126.82 95.9389 128.07 89.2189 128.09C70.4889 128.17 51.749 128.52 33.029 127.41C29.289 127.19 25.549 127.15 21.799 126.91C17.619 126.62 17.5689 126.56 17.3489 122.53C16.7389 111.14 16.2589 99.7096 15.4389 88.3096ZM17.5989 165.77C17.6689 162.42 17.9889 161.99 21.8989 162.09C33.8989 162.41 45.8989 162.85 57.9789 163.04C68.2289 163.2 78.4789 163.04 88.7289 163.04V163.85C110.809 164.383 132.896 164.93 154.989 165.49C156.589 165.49 159.329 164.71 159.319 167.11C159.309 169.51 156.549 168.53 155.009 168.57C131.529 169.22 108.079 167.65 84.5989 167.64C78.0789 167.64 71.5989 167.64 65.1389 168.85C60.2089 169.76 55.2989 168.85 50.3789 168.85C40.7189 168.85 31.0489 168.79 21.3789 168.85C19.1589 168.88 17.5389 168.64 17.5989 165.77ZM132.359 206.94C123.87 206.757 115.386 207.501 107.059 209.16C95.9889 211.54 84.6989 211.45 73.4789 212.03C56.7337 213.005 39.9464 213.025 23.1989 212.09C18.9889 211.83 18.1389 210.91 19.1989 207.28C19.5089 206.19 19.9789 205.48 21.1089 205.42C22.2389 205.36 23.479 205.42 24.669 205.36C34.339 205.17 44.009 205.64 53.669 204.8C57.549 204.46 61.5189 205.36 65.4489 205.66C81.4489 206.85 97.4489 206.31 113.389 205.51C129.329 204.71 144.949 206.06 160.729 205.95C164.079 205.95 167.439 205.95 170.729 205.95C157.969 207.48 145.169 207 132.359 206.94ZM176.979 162.84C179.295 162.327 181.673 162.155 184.039 162.33C222.539 162.616 261.032 162.9 299.519 163.18C305.239 163.18 310.979 163.36 316.679 163.03C330.909 162.18 345.059 163.51 359.229 164.46C359.801 164.4 360.377 164.518 360.878 164.8C361.38 165.081 361.782 165.511 362.029 166.03C360.109 167.5 358.029 166.9 356.179 166.9C297.546 166.94 238.912 166.94 180.279 166.9C179.279 166.9 178.279 166.9 177.279 166.9C176.119 166.85 174.689 166.9 174.719 165.26C174.765 164.66 175.014 164.093 175.424 163.653C175.835 163.213 176.383 162.926 176.979 162.84ZM182.279 172.45C190.959 172.45 199.659 172.45 208.339 172.71C221.169 173.14 233.989 172.79 246.819 172.62C278.212 172.2 309.592 172.566 340.959 173.72C346.839 173.93 352.699 174.67 358.559 175.16C358.479 175.354 358.389 175.545 358.289 175.73H174.929C176.829 172.31 179.639 172.43 182.279 172.45ZM176.879 181.99C177.669 181.99 178.459 181.99 179.249 181.99C210.649 181.65 242.049 181.22 273.459 180.99C294.399 180.87 315.309 181.91 336.179 183.65C342.278 184.199 348.412 184.25 354.519 183.8C357.189 183.59 360.119 182.98 362.689 187.23C344.989 185.45 328.279 186.92 311.529 185.38C286.729 183.09 261.809 183.56 236.939 184.86C219.939 185.75 202.939 185.47 185.999 185.65C183.038 185.609 180.077 185.729 177.129 186.01C175.509 186.21 174.979 185.79 174.959 184.32C174.939 182.85 175.289 182 176.879 182V181.99ZM175.029 191.38C175.029 190.48 175.459 189.8 176.299 189.7C177.473 189.595 178.655 189.595 179.829 189.7C195.379 190.47 210.939 190.32 226.499 190.49C233.789 190.57 241.079 190.73 248.359 190.85C253.829 189.85 259.359 190.45 264.839 190.53C282.339 190.823 299.839 191.35 317.339 192.11C294.389 192.77 271.429 192.93 248.469 192.45C234.879 192.65 221.289 192.79 207.709 193.08C200.039 193.24 192.359 193.64 184.709 193.94C181.751 194.099 178.79 193.702 175.979 192.77C175.685 192.683 175.429 192.497 175.256 192.244C175.083 191.991 175.003 191.685 175.029 191.38ZM182.429 197.26C206.549 199.46 230.749 198.87 254.919 199.2C261.329 199.12 267.749 199.03 274.159 199.01C281.349 199.01 288.529 199.08 295.679 199.4C304.859 199.18 314.029 198.87 323.199 198.77C333.679 198.64 344.139 198.72 354.609 198.77C356.479 198.77 358.459 198.21 360.339 199.4C359.409 201.82 357.279 200.99 355.759 200.99C339.759 200.99 323.759 201.48 307.759 200.15C303.759 199.81 299.689 199.57 295.649 199.39C286.109 199.61 276.559 199.74 267.029 199.45C263.029 199.32 258.939 199.25 254.889 199.19C249.889 199.25 244.889 199.31 239.889 199.34C220.889 199.41 201.979 199.72 183.029 199.89C180.879 199.89 178.689 200.19 175.719 199.08C178.189 196.83 180.439 197.07 182.429 197.26ZM182.429 221.97C180.349 219.24 178.279 216.5 175.989 213.46C181.699 213.6 181.689 213.6 182.389 217.9C182.609 219.22 182.959 220.51 183.239 221.82L182.429 221.97ZM183.899 224.21V223.85L184.209 224.06L183.899 224.21ZM227.419 247.54C227.899 243.47 227.899 243.47 231.959 239.98C231.349 243.21 230.519 245.74 227.369 247.54H227.419ZM232.879 226.9C229.669 231.14 226.519 235.42 223.259 239.62C221.735 241.684 219.713 243.33 217.381 244.402C215.05 245.473 212.485 245.937 209.925 245.749C207.366 245.562 204.896 244.729 202.746 243.328C200.595 241.927 198.835 240.005 197.629 237.74C197.014 236.733 196.523 235.655 196.169 234.53C194.299 227.91 191.259 221.77 187.499 214.53C206.099 217.26 223.649 216.22 241.189 214.13L241.739 215.3L232.879 226.9ZM307.979 208.76C290.229 208 272.499 208.76 254.759 209.08C237.419 209.44 220.099 210.24 202.759 210.81C199.012 210.949 195.265 210.535 191.639 209.58C187.339 208.45 182.899 207.88 179.289 207.2C188.479 206.02 198.559 206.92 208.599 206.3C220.189 205.6 231.829 205.15 243.449 204.74C250.74 204.428 258.043 204.552 265.319 205.11C270.219 205.53 275.159 205.65 280.089 205.65C289.369 205.65 298.629 205.65 307.819 207.09C340.749 206.43 373.679 206.98 406.599 208.23C407.767 208.337 408.926 208.524 410.069 208.79C423.669 208.3 437.259 208.57 450.849 208.79C465.639 209.03 480.419 208.84 495.189 209.35C501.478 208.933 507.789 208.996 514.069 209.54C527.459 210.38 540.859 210.16 554.249 210.6C558.249 210.73 562.109 210.4 565.649 208.16C566.799 211.54 565.769 213.24 562.289 213.31C560.719 213.31 559.149 213.6 557.579 213.52C538.299 212.65 519.039 211.33 499.719 211.52C498.153 211.467 496.59 211.33 495.039 211.11C466.659 211.75 438.279 211.79 409.929 210.22C396.929 210 383.999 209.7 371.039 209.57C351.759 209.37 332.489 209.31 313.229 209.16C311.419 209.18 309.629 209.47 307.929 208.76H307.979ZM336.389 216.28C336.389 216.82 336.279 217.69 335.949 217.86C333.019 219.32 329.849 218.95 326.749 218.81C324.419 218.71 322.809 217.49 322.159 214.73C326.769 214.18 331.009 215.18 335.249 215.25C335.739 215.27 336.409 215.51 336.339 216.28H336.389ZM313.929 213.2C316.859 216.66 316.139 220.02 317.539 222.71C314.289 219.76 313.789 218.49 313.879 213.2H313.929ZM330.179 250.44C328.399 251.35 327.059 250.29 326.429 248.67C324.429 243.53 322.549 238.35 320.619 233.18C318.769 230.72 318.079 227.84 317.499 224.89C320.069 226.6 320.849 229.32 321.929 231.89C324.709 236.89 327.539 241.89 330.189 246.89C330.679 247.89 332.029 249.45 330.129 250.44H330.179ZM336.959 242.82C334.249 240.15 333.429 236.9 331.829 234.2C330.229 231.5 328.659 228.37 326.659 224.64C328.659 224.5 329.789 224.33 330.949 224.35C335.579 224.45 336.439 225.01 336.889 229.78C337.209 233.84 336.909 238 336.909 242.82H336.959ZM343.739 247.63C342.879 247.89 342.029 247.63 341.939 246.73C341.298 240.472 341.636 234.153 342.939 228L344.499 228.05C344.499 231.65 344.499 235.25 344.499 238.83C344.45 241.202 344.788 243.566 345.499 245.83C345.869 247.07 344.609 247.35 343.739 247.63ZM346.969 218.63C346.373 218.687 345.774 218.561 345.251 218.268C344.729 217.975 344.31 217.529 344.049 216.99C345.869 214.99 348.349 215.44 350.669 215.23C373.399 213.43 396.059 215.42 418.669 216.62C431.669 217.31 444.669 217 457.739 216.98C473.149 216.98 488.549 217.61 503.929 218.07C528.609 218.79 553.259 220.13 577.929 219.8C579.929 219.8 581.929 219.8 583.859 219.8C584.939 219.8 586.569 219.52 586.439 221.27C586.309 222.83 584.749 222.59 583.609 222.65C582.819 222.65 582.029 222.65 581.239 222.65C561.489 222.52 541.739 223.07 522.019 221.3C514.926 220.74 507.795 220.881 500.729 221.72C488.469 223.03 476.279 221.31 464.089 220.39C442.799 218.77 421.499 218 400.179 219.39C382.419 220.54 364.679 219.14 346.919 218.67L346.969 218.63ZM348.969 233.71C363.639 234.36 378.299 237.37 392.969 235.31C414.309 232.31 435.539 235.52 456.809 235.97C476.539 236.41 496.269 237.63 515.989 238.48C522.099 238.75 528.219 239.05 534.319 239.58C542.579 240.3 550.849 240.58 559.119 239.07C562.842 238.531 566.627 238.599 570.329 239.27C575.107 239.845 579.929 239.962 584.729 239.62C584.259 236.43 582.099 235.75 579.729 235.62C575.789 235.38 571.839 235.04 567.899 235.14C531.899 236.03 496.059 232.94 460.139 231.99C447.909 231.67 435.679 231.2 423.439 230.73C411.203 230.19 398.943 230.679 386.789 232.19C374.679 233.77 362.789 231.46 350.789 230.6C348.529 230.44 348.459 229.05 348.469 227.34C348.469 225.34 349.009 223.75 351.349 223.74C356.489 223.74 361.659 223.36 366.739 223.93C385.78 226.118 404.983 226.52 424.099 225.13C436.219 224.22 448.159 225.42 460.099 226.41C467.769 227.04 475.439 228.05 483.099 228.22C495.529 228.5 507.959 228.32 520.399 228.16C540.539 227.89 560.669 228.71 580.799 229.16C586.199 229.3 586.409 229.37 586.469 234.68C586.469 238.14 589.059 242.5 586.469 244.79C584.359 246.64 580.109 244.43 576.769 244.45C575.589 244.45 574.399 244.37 573.219 244.38C538.219 244.82 503.349 243.06 468.439 241.55C443.389 240.46 418.299 241.33 393.229 241.91C380.599 242.19 367.959 242.33 355.349 241.14C350.069 240.72 348.979 239.42 348.879 233.75L348.969 233.71ZM596.199 246.71C596.119 251.41 595.389 252.14 590.459 251.97C570.709 251.28 550.989 252.88 531.239 252.28C525.897 252.023 520.543 252.241 515.239 252.93C511.709 253.472 508.114 253.428 504.599 252.8C493.279 250.67 481.879 250.35 470.409 250.6C448.909 251.07 427.409 251.35 405.889 250.02C402.735 249.897 399.577 250.004 396.439 250.34C381.769 251.61 367.279 249.34 352.759 248.05C352.449 248.05 352.179 247.6 351.759 247.29C352.339 245.71 353.759 246.47 354.639 246.47C378.719 246.58 402.809 247.09 426.899 246.83C467.569 246.39 508.129 248.83 548.739 250.24C559.979 250.63 571.239 250.75 582.489 250.78C588.159 250.78 591.099 248.05 591.899 242.46C592.341 238.529 592.257 234.558 591.649 230.65C591.209 227.13 590.939 223.59 593.049 220.04C595.919 221.62 596.049 223.82 596.049 225.97C596.139 232.94 596.239 239.85 596.109 246.76L596.199 246.71ZM601.839 236.32C601.839 231.76 601.839 227.21 601.839 222.65C601.8 222.358 601.829 222.062 601.922 221.783C602.016 221.504 602.172 221.25 602.378 221.041C602.584 220.832 602.836 220.672 603.113 220.575C603.391 220.478 603.687 220.445 603.979 220.48C606.279 220.48 608.579 220.48 611.579 220.48C609.018 226.189 605.709 231.532 601.739 236.37L601.839 236.32ZM624.079 150.07C618.359 150.01 612.639 149.93 606.939 150.07C604.029 150.17 603.219 149.07 603.269 146.27C603.419 138.59 603.269 130.9 603.269 123.22C603.269 115.54 603.369 107.85 603.269 100.16C603.209 97.3396 604.119 96.2896 606.979 96.4096C611.699 96.5996 616.429 96.4096 621.159 96.5396C625.259 96.6796 626.699 97.8796 626.739 101.74C626.859 116.91 626.739 132.08 626.849 147.25C626.789 149.38 625.979 150.14 623.989 150.12L624.079 150.07ZM758.309 222.67C737.499 222.37 716.679 222.09 695.879 221.67C694.039 221.67 691.879 221.67 690.449 219.85C693.899 218.69 747.899 219.85 758.359 221.31C758.239 221.82 758.229 222.28 758.219 222.72L758.309 222.67ZM763.169 161.67C762.089 177.83 761.509 193.99 761.739 210.2C761.799 214.78 761.669 214.79 757.299 214.97C756.139 214.97 754.959 214.97 752.859 214.97C756.569 212.05 756.739 209.08 755.169 205.61C754.279 203.61 754.569 203.51 757.459 200.13C754.459 197.96 751.359 197.69 748.209 199.75C747.539 200.19 747.009 200.56 746.529 199.75C747.529 202.06 745.769 204.4 746.529 206.75C746.58 206.776 746.633 206.796 746.689 206.81C746.684 206.853 746.684 206.896 746.689 206.94C749.199 206.45 750.689 207.87 752.439 209.77C748.959 211.13 746.999 210.54 746.689 206.94H746.579C746.554 206.874 746.534 206.808 746.519 206.74C745.409 206.3 745.209 205.1 744.519 204.3C742.449 201.59 743.709 200.3 746.519 199.77L746.459 199.64L746.539 199.77H746.599C746.499 196.45 743.799 196.98 741.889 196.87C736.269 196.54 730.629 196.55 725.009 196.32C721.549 196.17 718.009 196.54 714.659 195.22C711.659 196.22 708.519 196.22 705.789 198.22C702.859 200.36 700.249 198.22 697.579 195.9L714.579 193.9C717.859 188.07 717.799 187.51 713.079 183.28C714.419 181.41 717.589 181.42 718.079 178.83C718.549 176.53 716.839 174.74 716.349 172.53C717.019 170.99 718.879 171.03 720.009 170.02C723.399 167.02 723.209 163.11 719.279 160.74C717.675 159.742 715.834 159.187 713.946 159.133C712.057 159.078 710.188 159.526 708.529 160.43C706.409 161.48 704.719 162.85 702.159 160.87C700.159 159.34 698.009 160.35 696.629 162.48C695.779 163.8 694.989 165.15 693.989 166.78C691.189 165.1 690.369 161.65 687.379 160.29C683.849 158.69 681.829 160.92 679.659 162.63C678.831 162.04 677.951 161.527 677.029 161.1C671.139 158.91 669.409 159.71 667.539 165.8C666.159 170.525 664.489 175.16 662.539 179.68C661.279 182.52 659.539 184.84 656.009 184.76C655.629 184.68 655.236 184.696 654.864 184.806C654.493 184.916 654.154 185.116 653.879 185.39C652.819 186.63 651.959 195.98 652.879 197.49C653.879 199.32 655.599 199.59 657.469 199.29C659.998 198.827 662.376 197.756 664.399 196.17C666.299 194.79 668.229 193.29 670.819 193.56C675.169 194.01 677.899 191.83 679.739 188.13C680.42 186.968 681.161 185.843 681.959 184.76C682.569 186.838 683.321 188.873 684.209 190.85C686.209 194.55 688.059 194.77 691.209 192.14C692.359 191.14 692.739 189.37 694.519 189.14C694.519 189.14 694.519 189.05 694.449 189L694.539 189.05C694.495 188.942 694.473 188.827 694.474 188.711C694.475 188.594 694.499 188.479 694.544 188.372C694.59 188.266 694.656 188.169 694.739 188.088C694.822 188.006 694.921 187.943 695.029 187.9C695.109 188.05 695.269 188.2 695.259 188.34C695.199 188.77 695.259 189.42 694.539 189.05C694.539 189.05 694.539 189.05 694.539 189.13C695.539 190.55 694.759 192.13 694.769 193.56C694.779 194.99 694.239 196.12 692.389 196.17C691.088 196.187 689.824 196.604 688.769 197.365C687.714 198.125 686.918 199.192 686.489 200.42C685.379 203.17 684.549 206.09 686.389 208.94C688.389 212.01 691.229 210.82 693.889 210.41C695.629 210.14 697.359 209.69 699.069 209.25C701.409 208.64 703.689 208.14 706.189 210.74C706.409 207.62 706.579 205.37 706.769 202.74C709.509 204.52 708.359 208.02 710.449 209.97C711.929 208.62 711.779 206.47 712.879 204.97C713.301 204.294 713.921 203.764 714.654 203.453C715.388 203.141 716.2 203.063 716.979 203.23C718.539 203.53 718.389 204.96 718.549 206.05C718.929 208.65 719.879 210.18 722.779 208.82C729.079 212.1 736.419 211.64 743.849 214.29C741.649 215.51 740.159 215.17 738.759 215.19C722.939 215.48 707.219 213.79 691.449 213.19C676.259 212.6 661.049 212.83 645.839 212.69C644.462 212.743 643.083 212.716 641.709 212.61C638.529 212.21 636.839 210.68 636.929 207.61C637.239 196.96 637.749 186.33 638.239 175.68C638.239 175.36 638.659 175.05 639.099 174.42C640.199 176.22 639.529 178.71 641.709 179.85C643.591 180.949 645.767 181.438 647.939 181.25C648.139 181.25 648.339 181.25 648.539 181.25C651.539 181.25 655.399 182.89 657.299 179.63C659.379 176.07 657.999 171.93 657.069 168.1C656.894 167.426 656.542 166.811 656.05 166.319C655.557 165.827 654.943 165.475 654.269 165.3C650.299 164.019 646.032 163.98 642.039 165.19C639.949 165.79 640.459 168.1 638.839 168.92C638.839 163.45 638.839 158.14 638.839 152.82C638.706 132.473 638.559 112.14 638.399 91.8196C638.45 90.8202 638.45 89.8189 638.399 88.8196C638.099 85.9196 639.489 85.1196 642.219 85.1196C651.889 85.1196 661.559 84.9196 671.219 84.8296C686.819 84.6996 702.419 84.5596 718.009 84.4896C720.574 84.3806 723.143 84.555 725.669 85.0096C729.669 85.8696 731.919 88.8096 733.669 92.2896C744.259 112.82 753.389 134 762.209 155.29C763.021 157.34 763.32 159.558 763.079 161.75L763.169 161.67ZM692.589 201.16C693.148 200.91 693.758 200.796 694.369 200.826C694.981 200.855 695.576 201.028 696.109 201.33C697.309 201.82 699.279 201.74 699.109 203.56C698.979 205.56 697.279 205.78 695.599 205.56C695.604 205.579 695.604 205.6 695.599 205.62H695.529C694.529 207.26 692.959 207.51 690.979 207.74C691.749 204.74 693.799 205.56 695.529 205.62V205.56C696.149 203.15 692.979 203.07 692.499 201.24L692.589 201.16ZM672.739 187.63C675.209 180.97 678.909 174.92 682.109 168.63C682.375 168.097 682.711 167.602 683.109 167.16C685.329 164.66 687.209 164.96 688.109 168.16C688.55 170.279 688.834 172.428 688.959 174.59C688.94 175.129 689.044 175.665 689.263 176.159C689.481 176.652 689.808 177.09 690.219 177.44C694.579 174.44 695.869 168.77 700.389 165.77C696.995 174.542 692.985 183.063 688.389 191.27C686.049 184.85 687.099 179.07 684.219 173.75C681.479 175.97 680.479 179.01 678.799 181.54C677.119 184.07 676.619 187.13 673.569 188.43C673.239 188.8 672.809 189.27 672.359 188.8C671.909 188.33 672.239 187.89 672.739 187.63ZM656.659 194.2C656.435 193.233 656.56 192.217 657.012 191.334C657.464 190.45 658.214 189.754 659.129 189.37C664.379 186.87 666.549 182.16 668.399 177.09C669.579 173.86 669.969 170.31 672.629 166.27C672.039 179.9 665.369 191.13 656.629 194.2H656.659ZM706.219 173.7L706.319 173.6C705.959 171.12 707.449 169.19 708.379 167.16C710.619 162.26 711.869 162.07 717.379 166.16C711.249 165.74 709.519 170.67 706.279 173.61C706.279 173.67 706.279 173.74 706.279 173.8L706.169 173.9C706.309 177.23 710.249 175.3 711.559 177.9C708.059 177.67 704.839 177.63 703.919 181.9C702.919 186.72 707.289 186.79 709.699 188.61C709.369 188.9 709.249 189.1 709.119 189.11C699.429 189.58 699.119 189.24 702.839 180.34C703.759 178.12 704.019 175.49 706.169 173.89C706.199 173.82 706.189 173.77 706.189 173.7H706.219ZM643.619 171C643.686 170.637 643.837 170.294 644.059 170C644.989 168.92 650.669 168.63 651.939 169.67C652.785 170.354 653.388 171.292 653.66 172.345C653.932 173.399 653.858 174.512 653.449 175.52C652.609 178.12 650.369 177.32 648.449 177.33C644.739 177.23 642.739 174.71 643.589 171H643.619Z" fill="#DF2A3C"/>
<path fill-rule="evenodd" clip-rule="evenodd" d="M348.739 105C346.739 101.86 343.739 100.9 340.099 101.35C338.837 101.522 337.553 101.408 336.341 101.017C335.13 100.626 334.022 99.9672 333.099 99.0903C329.749 96.2503 324.969 97.6003 321.099 101.86C319.966 103.247 319.391 105.006 319.485 106.794C319.579 108.582 320.336 110.27 321.609 111.53C323.939 114.04 327.029 114.15 329.859 113.38C333.389 112.38 334.969 113.45 335.639 116.89C336.157 118.999 336.788 121.079 337.529 123.12C338.799 127.31 338.689 127.54 334.239 128.42C323.639 130.5 312.968 129.42 302.328 129.13C280.008 128.464 257.675 128.2 235.328 128.34C204.908 128.59 174.479 129.24 144.119 126.5C143.119 126.42 142.209 126.22 140.769 126C142.489 114.71 144.119 103.65 145.899 92.6303C147.149 84.8703 147.239 84.8803 155.289 84.8803C188.489 84.8803 221.689 84.4003 254.869 85.0903C292.979 85.9003 331.108 87.4803 369.198 86.5803C393.688 85.9903 418.149 86.2203 442.609 86.1903C477.379 86.1903 512.129 87.0003 546.869 88.4403C551.869 88.6503 551.928 88.6503 551.938 93.7903C551.938 104.85 551.938 115.914 551.938 126.98C551.938 131.18 551.839 131.28 547.769 131.26C506.279 131.02 464.768 130.94 423.318 130.41C404.968 130.17 386.608 129.1 368.318 127.35C367.148 127.24 365.959 127.14 364.789 126.97C363.949 126.85 363.168 126.32 363.188 125.5C363.27 122.34 363.778 119.205 364.698 116.18C364.938 115.33 365.848 115.34 366.698 115.45C367.865 115.638 369.047 115.721 370.229 115.7C371.729 115.62 373.709 116.33 374.509 114.61C375.399 112.72 374.509 111.31 372.509 110.4C371.189 109.79 371.509 108.4 371.849 107.26C372.321 105.757 372.705 104.228 372.999 102.68C373.249 101.09 373.189 99.5403 371.249 98.7803C369.669 98.1603 368.248 97.8903 366.808 99.0703C366.026 99.6747 365.318 100.369 364.698 101.14C363.078 103.41 361.529 103.83 358.789 102.42C354.299 100 352.919 100.62 348.739 105ZM512.279 116.19C512.819 116.71 513.389 117.19 513.909 117.77C518.309 122.39 528.559 121.15 531.769 115.62C533.769 112.2 533.409 111.11 530.029 109.11C528.709 108.34 526.958 108.21 526.089 106.61C526.928 105.31 527.739 103.99 528.639 102.7C529.089 102.07 528.779 101.58 528.469 101.11C527.849 100.18 527.039 100.59 526.469 101.11C524.798 102.69 523.219 104.36 521.669 105.92C519.459 104.92 520.028 102.1 517.928 101.39C511.388 105.72 510.629 107.69 512.289 116.18C510.369 115.77 510.708 114.18 510.719 112.94C510.861 109.594 510.442 106.248 509.479 103.04C507.919 98.3203 502.309 96.1203 499.259 98.8803C495.059 102.65 495.258 113.17 499.568 117.35C501.058 112.65 497.839 106.75 502.859 102.89C506.939 104.68 507.208 107.98 507.208 111.44C507.208 114.7 507.028 118.04 509.568 120.44C512.218 119.9 509.438 116.51 512.318 116.23L512.279 116.19ZM438.899 117.77C441.399 115.5 441.108 114.02 441.318 112.77C441.528 111.52 441.489 109.99 443.479 109.9C443.867 109.832 444.266 109.845 444.649 109.938C445.032 110.031 445.393 110.202 445.707 110.44C446.021 110.679 446.283 110.979 446.476 111.323C446.669 111.668 446.789 112.048 446.828 112.44C447.099 113.59 447.46 114.717 447.909 115.81C448.589 117.45 449.298 118.23 450.428 115.98C450.998 114.87 451.719 116.05 452.259 116.38C453.663 117.101 455.264 117.343 456.818 117.07C465.758 116.36 466.029 116.07 464.379 107.16C463.789 104.06 462.768 103.35 459.438 103.66C455.438 104.01 452.789 106.59 450.369 109.84C447.789 104.78 449.209 98.9403 445.739 94.6203C445.336 96.9693 445.126 99.3471 445.109 101.73C444.999 103.04 444.569 104.67 442.899 104.73C441.579 104.79 440.999 103.42 440.639 102.35C440.183 100.849 439.812 99.3233 439.529 97.7803C439.319 96.8403 439.289 95.7803 437.089 96.0303C436.648 103 438.328 109.86 438.938 117.81L438.899 117.77ZM414.678 122C417.048 127.07 419.088 127.79 423.188 125.17C428.188 121.99 430.009 116.34 428.549 108.86C427.339 102.68 423.819 100.61 418.389 103.86C414.899 105.86 412.578 105.94 409.698 103.24C407.908 101.55 405.589 100.93 403.249 102.66C400.909 104.39 399.849 106.45 400.659 109.3C401.019 110.56 401.469 111.81 401.849 113.01C403.019 112.79 403.309 112.07 403.759 111.41C404.989 109.67 404.169 105.96 407.619 106.41C410.419 106.8 409.819 109.74 410.119 111.77C410.509 114.19 411.639 115.16 414.119 114.68C416.599 114.2 419.189 113.95 421.739 113.68C424.569 113.41 425.629 114.84 424.739 117.55C424.338 118.878 423.503 120.033 422.368 120.831C421.233 121.629 419.864 122.023 418.479 121.95C417.369 122 416.258 121.19 414.678 122ZM491.149 119.14C493.115 114.204 493.852 108.865 493.299 103.58C491.679 105.4 490.209 106.58 488.419 103.73C487.523 102.671 486.321 101.916 484.979 101.57C481.399 100.34 478.779 102.14 478.649 106C478.479 111.33 478.518 116.66 478.558 122C478.558 123.06 478.098 124.71 479.678 124.91C481.678 125.17 481.378 123.13 481.678 121.99C482.148 120.28 482.279 118.49 482.609 116.75C483.109 114.16 485.459 114.33 487.239 113.81C489.239 113.21 489.239 115.22 489.789 116.32C490.159 117 490.459 117.68 491.149 119.14ZM388.659 96.1403C387.079 97.3703 387.429 98.7903 387.349 100.14C387.229 102.41 386.239 103.99 384.239 101.83C381.989 99.4003 380.409 100.64 378.779 102.11C377.149 103.58 375.369 105.37 374.779 107.77C382.719 112.98 382.778 112.99 387.328 109.14C389.098 109.46 388.949 112.23 390.849 112.3C392.689 110.77 391.068 107.85 393.339 106.67C395.758 109.42 395.249 113.48 398.469 116.39C399.529 112.54 397.828 109.67 397.578 106.71C397.418 104.78 396.969 102.84 394.009 103.5C392.189 103.89 391.239 102.43 390.789 100.75C390.389 99.2403 390.359 97.5803 388.659 96.1203V96.1403ZM541.739 107.86C543.569 105.77 546.628 105.08 548.558 102.39C544.878 101.64 542.108 102.23 539.678 104.18C536.678 106.56 536.678 107.94 539.058 110.94C540.248 112.43 542.109 113.42 542.619 115.94C539.909 117.3 537.159 118.67 534.419 120.09C533.419 120.58 531.918 120.85 532.698 122.46C532.988 122.992 533.462 123.399 534.031 123.606C534.601 123.812 535.226 123.803 535.789 123.58C539.946 122.39 543.781 120.278 547.009 117.4C549.009 115.59 548.589 113.32 546.469 111.25C545.069 109.87 542.859 109.68 541.739 107.86ZM311.198 102.86C313.278 101.59 314.798 100.72 316.198 99.7503C317.118 99.1503 318.689 98.7503 318.129 97.2703C317.569 95.7903 316.219 95.4703 314.749 95.4303C310.619 95.3303 306.559 98.8503 306.299 102.8C305.979 107.8 309.719 112.66 314.109 112.93C314.493 113.002 314.889 112.977 315.261 112.857C315.633 112.736 315.969 112.524 316.239 112.24C316.819 111.49 316.319 110.76 315.909 110.11C314.489 107.86 312.968 105.58 311.208 102.9L311.198 102.86ZM466.359 111.86C466.539 115.86 467.639 120.08 468.489 124.3C468.699 125.38 468.909 126.81 470.629 126.38C471.929 126.06 471.749 124.91 471.629 123.98C470.709 118.45 470.929 113.25 475.239 108.98C475.474 108.802 475.668 108.575 475.81 108.316C475.952 108.057 476.037 107.771 476.061 107.476C476.085 107.182 476.046 106.886 475.947 106.607C475.848 106.329 475.692 106.074 475.489 105.86C472.489 102.54 469.009 103.01 467.249 107.01C466.621 108.576 466.321 110.254 466.369 111.94L466.359 111.86Z" fill="#FDF9F7"/>
<path fill-rule="evenodd" clip-rule="evenodd" d="M694.28 189C695.39 190.46 694.579 192 694.589 193.57C694.599 195.14 694.069 196.14 692.209 196.18C690.907 196.189 689.639 196.603 688.582 197.365C687.525 198.126 686.731 199.197 686.309 200.43C685.189 203.18 684.369 206.09 686.209 208.95C688.209 212.02 691.059 210.82 693.699 210.42C695.448 210.118 697.18 209.727 698.89 209.25C701.21 208.65 703.51 208.14 706 210.75C706.23 207.63 706.399 205.36 706.579 202.75C709.329 204.53 708.19 208.04 710.26 209.97C711.76 208.64 711.599 206.49 712.699 204.97C713.125 204.298 713.745 203.77 714.478 203.46C715.21 203.149 716.02 203.069 716.8 203.23C718.35 203.53 718.21 204.96 718.37 206.06C718.74 208.66 719.689 210.19 722.599 208.83C728.899 212.11 736.24 211.66 743.67 214.3C741.47 215.52 739.979 215.18 738.579 215.2C722.769 215.47 707.04 213.79 691.27 213.2C676.08 212.61 660.86 212.84 645.66 212.71C644.279 212.766 642.896 212.735 641.52 212.62C638.35 212.23 636.66 210.7 636.75 207.67C637.05 197.03 637.58 186.39 638.05 175.75C638.05 175.43 638.47 175.12 638.92 174.49C640.01 176.29 639.34 178.79 641.52 179.92C643.409 181.009 645.586 181.498 647.76 181.32C647.956 181.306 648.153 181.306 648.349 181.32C651.399 181.32 655.23 182.97 657.12 179.7C659.2 176.15 657.81 172.01 656.89 168.18C656.713 167.505 656.36 166.89 655.866 166.398C655.372 165.905 654.755 165.554 654.079 165.38C650.113 164.094 645.848 164.056 641.859 165.27C639.769 165.87 640.28 168.18 638.66 169C638.66 163.53 638.66 158.22 638.66 152.89C638.52 132.55 638.369 112.217 638.209 91.8904C638.261 90.891 638.261 89.8897 638.209 88.8904C637.919 85.9904 639.31 85.1904 642.03 85.1904C651.7 85.1904 661.37 84.9904 671.03 84.9004C686.63 84.7704 702.219 84.6304 717.819 84.5604C720.384 84.453 722.952 84.624 725.479 85.0704C729.479 85.9404 731.719 88.8804 733.479 92.3604C744.059 112.89 753.2 134.07 762.02 155.36C762.851 157.365 763.193 159.538 763.02 161.7C761.94 177.85 761.359 194.03 761.589 210.22C761.649 214.81 761.52 214.82 757.14 215C755.98 215.05 754.809 215 752.709 215C756.419 212.09 756.59 209.11 755.02 205.64C754.13 203.64 754.43 203.54 757.3 200.17C754.3 198 751.2 197.73 748.05 199.79C747.35 200.25 746.81 200.66 746.3 199.63L746.459 199.72C746.359 196.39 743.66 196.91 741.76 196.81C736.14 196.49 730.51 196.5 724.87 196.26C721.4 196.11 717.87 196.48 714.52 195.16C714.52 194.73 714.519 194.28 714.449 193.85C717.739 188.02 717.669 187.46 712.959 183.23C714.289 181.36 717.449 181.39 717.959 178.78C718.429 176.49 716.729 174.69 716.229 172.48C716.899 170.94 718.77 170.98 719.89 169.98C723.29 166.98 723.09 163.07 719.16 160.69C717.557 159.693 715.718 159.139 713.831 159.085C711.945 159.03 710.077 159.477 708.42 160.38C706.29 161.44 704.6 162.8 702.04 160.83C700.04 159.3 697.89 160.31 696.51 162.43C695.66 163.75 694.87 165.1 693.87 166.73C691.08 165.05 690.25 161.6 687.26 160.25C683.73 158.64 681.72 160.89 679.54 162.58C678.71 161.994 677.829 161.482 676.91 161.05C671.03 158.86 669.299 159.65 667.429 165.75C666.047 170.474 664.377 175.11 662.429 179.63C661.159 182.47 659.43 184.8 655.91 184.71C655.529 184.631 655.134 184.647 654.76 184.757C654.387 184.866 654.047 185.067 653.77 185.34C652.71 186.59 651.86 195.94 652.77 197.44C653.77 199.27 655.489 199.54 657.359 199.25C659.887 198.779 662.265 197.705 664.29 196.12C666.19 194.75 668.119 193.26 670.719 193.52C675.059 193.96 677.79 191.79 679.63 188.08C680.313 186.921 681.054 185.796 681.849 184.71C682.473 186.785 683.224 188.819 684.099 190.8C686.099 194.5 687.959 194.73 691.099 192.1C692.259 191.1 692.629 189.29 694.449 189.1L694.28 189ZM692.88 87.4404C692.88 94.3604 692.88 94.3604 685.88 94.3604H684.74C672.1 94.3604 659.469 94.4304 646.849 94.3604C644.129 94.3604 642.71 95.1104 642.91 98.0004C642.97 99.0004 642.91 100 642.91 101C643.03 115.214 643.153 129.424 643.28 143.63C643.34 150.63 644.19 151.56 651.28 151.26C663.51 150.778 675.759 151.192 687.929 152.5C690.48 152.61 692.919 153.579 694.849 155.25C698.599 158.6 701.939 157.86 704.609 153.67C706.279 151.05 706.539 148.11 706.609 145.14C706.609 141.43 706.609 137.73 706.609 134.01C709.02 136.64 709.44 139.53 709.9 142.43C710.39 145.59 711.22 148.67 713.9 150.75C715.46 151.94 717.36 153.34 719.27 152.36C721.18 151.38 720.369 149.16 720.089 147.53C717.619 132.95 715.09 118.4 712.52 103.83C712.1 101.41 711.579 99.3204 708.709 98.4704C706.469 97.7904 705.589 95.7004 705.189 93.4004C704.329 88.4004 704.28 88.4004 699.29 87.7104C697.27 87.3704 695.33 86.8604 692.88 87.4604V87.4404ZM723.079 95.3804C713.769 95.6004 713.149 96.4804 715.949 104.7C719.549 115.327 723.153 125.96 726.76 136.6C728.09 140.52 729.369 144.46 730.699 148.37C731.699 151.37 733.56 153.9 736.92 153.88C741.92 153.88 746.599 155.56 751.449 156.25C756.139 156.92 757.07 155.75 755.66 151.12C755.399 150.395 755.092 149.686 754.74 149C747.5 133.24 740.273 117.477 733.059 101.71C730.959 97.0504 728.089 94.0004 723.079 95.4004V95.3804Z" fill="#FDF9F7"/>
<path fill-rule="evenodd" clip-rule="evenodd" d="M56.9293 84.8003C69.7293 84.4403 82.5393 83.8003 95.3493 84.8003C100.539 85.2203 100.669 85.1903 100.289 90.2703C99.5494 100.27 98.6694 110.27 97.7894 120.33C97.2294 126.81 95.9393 128.05 89.2193 128.08C70.4893 128.16 51.7494 128.52 33.0294 127.4C29.2894 127.18 25.5294 127.14 21.7994 126.9C17.6094 126.61 17.5693 126.55 17.3493 122.53C16.7193 111.11 16.2593 99.6803 15.4393 88.2803C15.2193 85.0803 16.4393 84.5903 19.0893 84.7903C31.7393 85.7303 44.3193 85.2803 56.9293 84.8003Z" fill="#FDF9F7"/>
<path fill-rule="evenodd" clip-rule="evenodd" d="M348.879 233.75C363.559 234.4 378.209 237.42 392.879 235.37C414.219 232.37 435.449 235.58 456.719 236.04C476.449 236.47 496.179 237.69 515.899 238.54C522.009 238.8 528.109 239.11 534.229 239.64C542.489 240.36 550.759 240.69 559.029 239.14C562.752 238.602 566.537 238.669 570.239 239.34C575.017 239.912 579.839 240.026 584.639 239.68C584.169 236.49 582.009 235.82 579.639 235.68C575.699 235.43 571.749 235.1 567.809 235.19C531.809 236.07 495.979 233 460.049 232.05C447.819 231.72 435.579 231.26 423.349 230.79C411.113 230.247 398.853 230.732 386.699 232.24C374.589 233.81 362.699 231.52 350.699 230.65C348.429 230.49 348.369 229.09 348.379 227.39C348.379 225.39 348.919 223.8 351.259 223.8C356.379 223.8 361.569 223.41 366.649 223.98C385.69 226.164 404.893 226.566 424.009 225.18C436.129 224.28 448.069 225.48 460.009 226.46C467.679 227.09 475.349 228.11 483.009 228.28C495.439 228.56 507.869 228.38 520.309 228.22C540.459 227.96 560.579 228.76 580.709 229.22C586.119 229.35 586.319 229.43 586.379 234.74C586.379 238.21 588.959 242.56 586.379 244.84C584.269 246.69 580.019 244.48 576.679 244.51C575.499 244.51 574.309 244.42 573.129 244.43C538.129 244.88 503.259 243.11 468.349 241.6C443.299 240.52 418.209 241.38 393.139 241.96C380.509 242.25 367.869 242.38 355.259 241.2C350.069 240.72 348.979 239.41 348.879 233.75Z" fill="#F9E8E2"/>
<path fill-rule="evenodd" clip-rule="evenodd" d="M146.649 66.8701C163.909 67.1201 180.649 66.3201 197.459 67.4201C205.149 67.9301 212.829 68.5201 220.529 68.3001C241.869 67.6601 263.169 69.0401 284.529 69.1901C326.989 69.5001 369.419 68.1301 411.859 67.0401C432.599 66.5101 453.289 68.3901 474.019 68.4101C478.359 68.4101 482.709 68.5101 487.019 68.3101C507.769 67.3101 528.469 69.7101 549.199 69.1301C552.289 69.0401 552.859 70.0501 552.549 73.1301C552.369 74.9501 551.439 75.4501 549.829 75.4101C546.829 75.3301 543.909 75.3201 540.949 75.2801C507.949 74.8701 474.949 75.2801 442.039 73.8201C410.039 72.4301 378.039 75.1501 346.119 74.1101C323.633 73.3701 301.133 72.8968 278.619 72.6901C254.529 72.4401 230.449 73.2401 206.369 73.6901C188.599 74.0001 170.809 73.7801 153.039 73.7601C148.739 73.6501 148.739 73.5601 146.649 66.8701Z" fill="#F9E8E2"/>
<path fill-rule="evenodd" clip-rule="evenodd" d="M390.59 13.9997C384.08 13.9997 378.36 13.8997 372.65 13.9997C368.5 13.9459 364.365 14.4881 360.37 15.6097C358.093 16.2377 355.715 16.4143 353.37 16.1297C314.76 12.6897 276.06 13.0597 237.37 13.2697C187.63 13.5497 137.89 11.5597 88.1397 11.7797C64.4497 11.8897 40.7697 12.1997 17.1397 12.3897C10.4797 12.3897 9.62971 13.1597 9.77971 19.9997C10.4597 51.9997 9.34965 83.9997 11.5897 115.91C11.8197 119.05 11.5897 122.21 11.5897 125.37C11.5897 127.49 10.8096 128.62 8.44964 128.61C5.85964 128.61 6.32972 126.81 6.28972 125.34C6.11972 117.45 5.87967 109.55 5.85967 101.66C5.77967 72.2264 5.74636 42.803 5.75969 13.3897C5.75969 7.31972 5.90969 7.02971 12.0097 7.05971C22.0697 7.05971 32.1396 7.44971 42.1996 7.58971C57.7996 7.82971 73.3897 6.46971 88.9897 7.00971C120.99 8.13971 152.9 9.49971 184.87 9.83971C209.55 10.0997 234.23 9.92971 258.87 10.2497C294.01 10.7097 329.13 11.4997 364.27 12.0297C371.76 12.1397 379.27 11.7697 386.77 11.6797C387.8 11.6897 389.07 11.3097 390.59 13.9997Z" fill="#F9E8E2"/>
<path fill-rule="evenodd" clip-rule="evenodd" d="M603.229 123.31C603.229 115.63 603.329 107.93 603.229 100.25C603.229 97.4304 604.079 96.3804 606.929 96.5004C611.649 96.6804 616.389 96.5004 621.109 96.6304C625.219 96.7504 626.669 97.9604 626.689 101.83C626.829 117 626.689 132.17 626.799 147.34C626.799 149.34 625.999 150.13 624.009 150.12C618.299 150.07 612.579 149.98 606.869 150.12C603.969 150.2 603.149 149.12 603.199 146.32C603.329 138.68 603.229 131 603.229 123.31Z" fill="#FDF9F7"/>
<path d="M241.139 214.1C223.609 216.19 206.049 217.22 187.449 214.5C191.209 221.77 194.249 227.91 196.119 234.5C196.475 235.624 196.966 236.702 197.579 237.71C198.785 239.975 200.546 241.897 202.696 243.298C204.846 244.699 207.316 245.532 209.876 245.719C212.435 245.907 215 245.443 217.332 244.372C219.663 243.3 221.685 241.654 223.209 239.59C226.449 235.39 229.619 231.11 232.829 226.87L241.689 215.24L241.139 214.1Z" fill="#FDF9F7"/>
<path fill-rule="evenodd" clip-rule="evenodd" d="M89.7395 143.49C112.03 143.49 134.32 143.49 156.62 143.49C161.11 143.49 161.68 143.08 161.05 148.49C160.84 150.31 159.86 150.77 158.3 150.75C154.54 150.75 150.799 150.8 147.059 150.75C123.199 150.476 99.3395 150.196 75.4795 149.91C58.4795 149.74 41.5495 149.69 24.5895 149.54C23.0219 149.536 21.4593 149.362 19.9295 149.02C19.2397 148.879 18.6303 148.479 18.2266 147.902C17.8229 147.325 17.6558 146.616 17.7596 145.92C17.8396 144.21 18.8896 143.55 20.5196 143.57C21.8996 143.57 23.2896 143.57 24.6596 143.57C46.3063 143.53 67.9995 143.503 89.7395 143.49Z" fill="#FDF9F7"/>
<path fill-rule="evenodd" clip-rule="evenodd" d="M564.209 102.08C564.699 120.78 565.369 146.62 566.039 172.46C566.039 173.65 566.129 174.83 566.099 176.02C566.099 177.61 566.239 179.39 563.699 178.94C561.969 178.65 560.089 178.71 560.289 176.01C560.719 170.19 560.929 164.35 561.399 158.53C561.512 157.857 561.49 157.169 561.336 156.505C561.181 155.84 560.897 155.213 560.499 154.66C559.939 153.92 559.129 152.87 560.179 152.11C563.179 149.93 562.059 147.97 560.339 145.65C558.189 142.75 557.469 139.6 560.059 136.45C560.698 135.802 561.056 134.929 561.056 134.02C561.056 133.11 560.698 132.237 560.059 131.59C557.969 129.29 558.129 126.51 558.059 123.76C557.839 108.966 557.652 94.1628 557.499 79.3495C557.313 76.7863 557.499 74.2098 558.049 71.6995C559.879 65.3995 559.159 59.2595 557.889 53.0195C556.789 47.5895 556.819 42.0195 556.889 36.4995C556.942 28.6129 556.942 20.7162 556.889 12.8095C556.889 11.0295 557.129 9.80952 559.389 9.75952C561.649 9.70952 562.069 10.7595 562.109 12.6395C562.289 19.3495 562.609 26.0495 562.759 32.7595C563.179 53.4895 563.609 74.2195 564.209 102.08Z" fill="#F9E8E2"/>
<path fill-rule="evenodd" clip-rule="evenodd" d="M593.059 220.09C595.929 221.68 596.059 223.88 596.059 226.03C596.129 232.95 596.239 239.85 596.059 246.77C595.969 251.46 595.249 252.2 590.319 252.03C570.569 251.34 550.849 252.95 531.099 252.34C525.757 252.094 520.403 252.312 515.099 252.99C511.572 253.527 507.981 253.483 504.469 252.86C493.159 250.72 481.749 250.41 470.269 250.66C448.759 251.12 427.269 251.41 405.759 250.08C402.605 249.952 399.447 250.059 396.309 250.4C381.639 251.67 367.159 249.4 352.629 248.12C352.319 248.12 352.049 247.66 351.629 247.35C352.209 245.77 353.629 246.52 354.509 246.54C378.589 246.65 402.679 247.15 426.759 246.89C467.429 246.45 507.999 248.89 548.609 250.3C559.849 250.7 571.109 250.81 582.359 250.85C588.039 250.85 590.979 248.12 591.769 242.52C592.207 238.589 592.12 234.617 591.509 230.71C591.209 227.18 590.939 223.63 593.059 220.09Z" fill="#F9E8E2"/>
<path fill-rule="evenodd" clip-rule="evenodd" d="M343.999 217C345.819 215 348.309 215.45 350.619 215.26C373.349 213.47 396.009 215.46 418.619 216.66C431.619 217.35 444.619 217.04 457.699 217.01C473.099 217.01 488.479 217.64 503.879 218.1C528.559 218.83 553.209 220.15 577.879 219.83C579.879 219.83 581.879 219.78 583.809 219.83C584.889 219.83 586.529 219.55 586.389 221.3C586.269 222.86 584.709 222.63 583.559 222.69C582.769 222.69 581.979 222.69 581.189 222.69C561.439 222.57 541.689 223.11 521.969 221.35C514.876 220.79 507.745 220.931 500.679 221.77C488.419 223.08 476.229 221.37 464.039 220.43C442.749 218.8 421.459 218.05 400.129 219.38C382.339 220.49 364.599 219.1 346.839 218.63C346.259 218.663 345.681 218.526 345.177 218.237C344.673 217.947 344.264 217.518 343.999 217Z" fill="#F9E8E2"/>
<path fill-rule="evenodd" clip-rule="evenodd" d="M64.6096 193.34C60.3596 193.54 56.0996 193.69 51.8496 193.95C48.2096 194.17 48.2096 194.23 48.2896 198.49C48.2896 198.99 48.2295 199.49 48.2095 199.98C43.6795 199.91 39.1296 199.88 34.5996 199.77C32.2189 199.726 29.8453 199.499 27.4996 199.09C29.6296 198.94 31.7696 198.72 33.9196 198.65C35.4696 198.6 36.6595 198.25 36.7195 196.43C36.7995 194.43 35.4095 194.28 33.9395 194.25C30.7895 194.16 27.6296 194.11 24.4796 193.99C24.096 194.035 23.7076 193.974 23.3555 193.816C23.0034 193.657 22.7007 193.407 22.4796 193.09C22.9796 190.86 24.8696 191.55 26.2596 191.5C33.3596 191.24 40.4595 191.08 47.5695 190.86C48.7519 190.817 49.9307 190.704 51.0996 190.52C51.9896 190.37 53.2796 190.52 53.0996 189.02C52.9196 187.52 51.6396 187.96 50.7696 187.92C42.1096 187.55 33.4196 187.32 24.7696 186.85C22.4896 186.73 18.6396 187.64 19.0396 183.85C19.3896 180.65 22.9596 182.11 25.0396 182.1C48.5296 181.98 72.0396 182.1 95.5196 181.94C104.008 181.932 112.489 182.466 120.91 183.54C129.544 184.578 138.271 184.595 146.91 183.59C149.069 183.375 151.24 183.285 153.41 183.32C154.655 183.248 155.898 183.499 157.018 184.049C158.138 184.599 159.096 185.43 159.8 186.46C157.66 187.67 155.71 187.24 153.88 187.24C123.666 187.24 93.4629 187.24 63.2696 187.24C61.8896 187.24 60.4996 187.24 59.1196 187.24C57.5496 187.24 56.3895 187.65 56.4595 189.53C56.5295 191.08 57.5696 191.42 58.8696 191.48C60.8696 191.58 62.8096 191.7 64.7896 191.81C64.6596 192.27 64.6296 192.8 64.6096 193.34Z" fill="#F9E8E2"/>
<path fill-rule="evenodd" clip-rule="evenodd" d="M4.64941 251.75C7.21941 213.68 7.02935 176.4 6.32935 139.12C6.26935 137.934 6.26935 136.746 6.32935 135.56C6.41935 134.29 5.71939 132.4 7.24939 131.94C9.33939 131.34 10.3993 133.24 11.0793 134.83C11.5543 136.11 11.8013 137.464 11.8093 138.83C13.0993 169.57 15.3294 200.29 13.7294 231.09C13.2594 240.51 11.7394 244.14 4.64941 251.75Z" fill="#FDF9F7"/>
<path fill-rule="evenodd" clip-rule="evenodd" d="M258.049 150.17L182.948 151.95C181.558 151.95 180.169 151.88 178.799 152.03C175.799 152.37 175.188 150.77 175.188 148.14C175.188 145.14 176.989 145.2 179.089 145.3C193.278 145.99 207.468 146.98 221.688 147.25C244.188 147.69 266.689 147.59 289.219 147.77C312.299 147.957 335.385 148.197 358.479 148.49C360.209 148.49 363.239 147.39 363.169 150.35C363.079 153.81 359.919 152.1 358.169 152.01C328.739 150.55 299.379 150 258.049 150.17Z" fill="#F9E8E2"/>
<path fill-rule="evenodd" clip-rule="evenodd" d="M362.029 166C360.099 167.47 358.029 166.87 356.199 166.87C297.533 166.91 238.899 166.91 180.299 166.87C179.299 166.87 178.299 166.87 177.299 166.87C176.119 166.82 174.689 166.87 174.729 165.23C174.772 164.634 175.016 164.07 175.421 163.63C175.826 163.19 176.369 162.901 176.959 162.81C179.277 162.286 181.66 162.114 184.029 162.3C222.523 162.567 261.013 162.853 299.499 163.16C305.219 163.16 310.959 163.33 316.669 162.99C330.909 162.15 345.049 163.48 359.209 164.43C359.784 164.367 360.364 164.484 360.869 164.766C361.375 165.047 361.78 165.478 362.029 166Z" fill="#FDF9F7"/>
<path d="M170.739 206H160.739C144.949 206.13 129.209 204.77 113.399 205.56C97.3994 206.36 81.3993 206.89 65.4593 205.71C61.5293 205.42 57.5494 204.52 53.6694 204.85C43.9894 205.69 34.3294 205.22 24.6694 205.41C23.4894 205.41 22.2994 205.41 21.1194 205.47C19.9394 205.53 19.5093 206.24 19.1993 207.32C18.1993 210.95 19.0393 211.88 23.1993 212.14C39.9468 213.075 56.7341 213.055 73.4793 212.08C84.7193 211.5 95.9893 211.58 107.059 209.21C115.387 207.552 123.87 206.808 132.359 206.99C145.169 207 157.969 207.47 170.739 206Z" fill="#F9E8E2"/>
<path fill-rule="evenodd" clip-rule="evenodd" d="M88.7398 163.88C110.82 164.413 132.9 164.957 154.98 165.51C156.6 165.51 159.33 164.73 159.32 167.13C159.31 169.53 156.55 168.54 155.01 168.58C131.53 169.22 108.08 167.67 84.5998 167.66C78.0798 167.66 71.5998 167.66 65.1398 168.87C60.2098 169.77 55.2998 168.87 50.3798 168.87C40.7098 168.87 31.0398 168.87 21.3798 168.87C19.1698 168.87 17.5498 168.63 17.5998 165.75C17.6698 162.41 17.9898 161.98 21.8998 162.07C33.8998 162.4 45.8998 162.84 57.9798 163.07C68.2298 163.23 78.4798 163.07 88.7298 163.07C88.7398 163.33 88.7398 163.6 88.7398 163.88Z" fill="#F9E8E2"/>
<path fill-rule="evenodd" clip-rule="evenodd" d="M362.74 187.23C345.04 185.46 328.32 186.92 311.59 185.38C286.79 183.09 261.86 183.56 236.99 184.86C219.99 185.75 202.99 185.46 186.05 185.65C183.089 185.61 180.128 185.73 177.18 186.01C175.55 186.21 175.03 185.79 175.01 184.32C174.99 182.85 175.34 181.99 176.93 181.99C177.72 181.99 178.51 181.99 179.3 181.99C210.71 181.65 242.12 181.22 273.51 180.99C294.51 180.87 315.36 181.91 336.24 183.65C342.339 184.19 348.472 184.24 354.58 183.8C357.21 183.59 360.13 183 362.74 187.23Z" fill="#F9E8E2"/>
<path fill-rule="evenodd" clip-rule="evenodd" d="M454.149 165.29C494.149 165.89 521.539 166.29 548.949 166.79C550.619 166.79 553.649 165.49 553.629 168.41C553.629 170.51 550.739 169.77 549.079 169.79C522.659 170.15 496.279 170.06 469.859 168.3C444.089 166.58 418.199 167.74 392.359 168.22C388.815 168.414 385.285 168.818 381.789 169.43C379.989 169.68 379.239 169.04 379.169 167.27C379.099 165.5 379.169 164.09 381.529 164.12C384.689 164.12 387.839 164.12 391.009 164.12C416.239 164.6 441.479 165.06 454.149 165.29Z" fill="#F9E8E2"/>
<path fill-rule="evenodd" clip-rule="evenodd" d="M358.289 175.73H174.929C176.829 172.31 179.649 172.45 182.279 172.45C190.959 172.45 199.649 172.45 208.339 172.71C221.169 173.13 233.989 172.78 246.819 172.62C278.212 172.2 309.592 172.567 340.959 173.72C346.839 173.93 352.699 174.67 358.559 175.16C358.479 175.355 358.389 175.545 358.289 175.73Z" fill="#F9E8E2"/>
<path fill-rule="evenodd" clip-rule="evenodd" d="M573.329 212.61C571.849 211.86 572.269 210.55 572.219 209.47C571.009 179.68 568.829 149.92 569.899 120.07C570.109 114.16 570.509 108.24 570.899 102.32C571.669 90.0502 570.319 77.8502 569.509 65.6302C568.429 49.2702 567.623 32.9035 567.089 16.5302C567.044 15.9377 567.044 15.3427 567.089 14.7502C567.289 12.9902 567.329 10.6502 569.599 10.7502C571.869 10.8502 571.029 13.1602 571.039 14.5402C571.139 24.6202 570.959 34.7002 571.219 44.7802C571.689 62.7302 573.219 80.6402 572.739 98.6402C571.849 129.25 572.639 159.87 573.959 190.46C574.229 196.57 574.579 202.68 574.819 208.8C574.859 210.19 575.349 211.94 573.329 212.61Z" fill="#F9E8E2"/>
<path fill-rule="evenodd" clip-rule="evenodd" d="M554.469 187.07C546.369 186.64 539.309 185.88 532.249 185.96C517.059 186.14 501.869 187.37 486.699 187.06C453.699 186.39 420.769 187.06 387.819 186.42C386.079 186.42 384.279 186.51 382.989 184.91C384.769 183.12 386.989 183.28 389.159 183.37C407.899 184.14 426.649 182.91 445.399 183.13C479.726 183.544 514.059 183.94 548.399 184.32C550.329 184.34 552.319 184.17 554.469 187.07Z" fill="#F9E8E2"/>
<path d="M307.739 207.09C298.549 205.63 289.289 205.63 280.009 205.65C275.079 205.65 270.139 205.53 265.239 205.11C257.963 204.542 250.66 204.418 243.369 204.74C231.749 205.15 220.129 205.58 208.519 206.3C198.519 206.92 188.399 206.02 179.209 207.2C182.819 207.87 187.209 208.45 191.559 209.58C195.185 210.535 198.932 210.949 202.679 210.81C219.999 210.23 237.339 209.42 254.679 209.08C272.419 208.72 290.149 208 307.899 208.76C307.879 208.2 307.829 207.65 307.739 207.09Z" fill="#F9E8E2"/>
<path fill-rule="evenodd" clip-rule="evenodd" d="M135.129 156.5C96.5289 158.1 57.9989 159.58 19.5789 156.92C19.3189 154.49 20.749 154.48 21.7789 154.23C26.0216 153.275 30.3799 152.938 34.7189 153.23C67.0189 154.99 99.3889 154.23 131.719 156.12C132.829 156.22 133.979 156.38 135.129 156.5Z" fill="#F9E8E2"/>
<path fill-rule="evenodd" clip-rule="evenodd" d="M517.279 151.91C507.279 152.79 497.209 152.42 487.169 152.39C471.009 152.39 454.829 152.13 438.659 151.95C420.126 151.744 401.592 151.507 383.059 151.24C381.779 151.24 380.409 151.44 378.909 150.24C380.839 148.24 383.059 148.83 385.029 148.78C401.389 148.347 417.749 148.26 434.109 148.52C461.909 148.96 489.669 150.52 517.439 151.74L517.279 151.91Z" fill="#F9E8E2"/>
<path fill-rule="evenodd" clip-rule="evenodd" d="M382.539 199.3C439.079 200.93 495.678 198.07 551.958 202.62C551.438 202.82 552.529 202.4 552.208 203.13C552.167 203.204 552.109 203.269 552.04 203.319C551.971 203.369 551.892 203.403 551.808 203.42C550.048 203.51 548.279 203.66 546.519 203.63C491.852 202.61 437.185 201.573 382.519 200.52C382.529 200.1 382.529 199.69 382.539 199.3Z" fill="#F9E8E2"/>
<path fill-rule="evenodd" clip-rule="evenodd" d="M119.55 126.25C120.91 120.33 122.32 114.25 123.7 108.19C125.46 100.5 127.2 92.7997 128.97 85.1197C129.27 83.7797 129.69 82.4497 129.97 81.1197C130.39 78.9697 131.97 78.8697 133.58 79.1197C135.19 79.3697 135 80.7997 134.85 81.8997C134.023 88.1597 133.146 94.413 132.22 100.66C131.22 107.66 129.82 114.66 129.1 121.73C128.74 125.17 127.63 126.84 124.1 126.58C122.74 126.47 121.41 127.38 119.55 126.25Z" fill="#F9E8E2"/>
<path fill-rule="evenodd" clip-rule="evenodd" d="M175.739 199.09C178.229 196.81 180.479 197.09 182.479 197.25C210.639 199.83 238.909 198.58 267.109 199.44C285.799 200.01 304.529 198.96 323.259 198.75C333.729 198.63 344.189 198.7 354.659 198.75C356.539 198.75 358.509 198.2 360.389 199.39C359.469 201.81 357.329 200.98 355.809 200.98C339.809 200.98 323.809 201.47 307.809 200.14C296.619 199.2 285.429 198.95 274.179 198.99C262.749 198.99 251.319 199.29 239.889 199.32C220.889 199.4 201.969 199.71 183.029 199.88C180.859 199.93 178.659 200.21 175.739 199.09Z" fill="#E4AA9C"/>
<path fill-rule="evenodd" clip-rule="evenodd" d="M550.9 160.58C548.46 160.58 546.01 160.65 543.56 160.58C512.42 159.58 481.26 159.47 450.09 159.36C427.99 159.28 405.91 158.77 383.82 158.36C382.24 158.36 379.31 159.19 379.41 157.03C379.53 154.32 382.52 155.51 384.08 155.83C391.9 157.47 399.8 157.11 407.68 156.95C434.53 156.38 461.31 158.14 488.14 158.38C505.9 158.54 523.66 158.38 541.42 158.38C544.633 158.284 547.845 158.572 550.99 159.24L550.9 160.58Z" fill="#E4AA9C"/>
<path fill-rule="evenodd" clip-rule="evenodd" d="M489.16 177.05C474.76 177.38 460.34 178.46 445.98 177.05C436.71 176.12 427.45 175.14 418.23 176.28C407.23 177.64 396.16 177.28 385.12 177.37C383.28 177.37 381.12 178.15 379.81 175.96C380.16 174.26 381.55 174.59 382.62 174.59C409.06 174.43 435.5 174.51 461.93 175.59C471 175.95 480.09 176.15 489.15 176.42C489.104 176.519 489.081 176.627 489.083 176.736C489.085 176.845 489.111 176.952 489.16 177.05Z" fill="#F9E8E2"/>
<path fill-rule="evenodd" clip-rule="evenodd" d="M51.7395 72.0799H21.6195C20.2413 72.103 18.8629 72.0563 17.4895 71.9399C17.2945 71.9285 17.1037 71.8784 16.9283 71.7924C16.753 71.7065 16.5965 71.5865 16.468 71.4394C16.3395 71.2923 16.2417 71.1211 16.1802 70.9357C16.1186 70.7504 16.0945 70.5546 16.1095 70.3599C16.0657 69.9672 16.1553 69.5712 16.3639 69.2356C16.5725 68.9 16.888 68.6444 17.2595 68.5099C18.5867 68.1723 19.95 67.9977 21.3194 67.9899C42.1928 67.9299 63.0595 67.8932 83.9195 67.8799H84.5195C86.0695 67.9299 87.8795 67.6499 87.7395 70.0899C87.5995 72.5299 85.6795 71.9599 84.2195 72.0899C83.0495 72.1599 81.8594 72.0899 80.6794 72.0899L51.7395 72.0799Z" fill="#FDF9F7"/>
<path fill-rule="evenodd" clip-rule="evenodd" d="M307.928 208.76C307.928 208.2 307.819 207.65 307.769 207.09C340.699 206.45 373.639 206.98 406.549 208.23C407.716 208.343 408.875 208.53 410.019 208.79C410.019 209.27 409.909 209.79 409.859 210.24C396.859 210.02 383.939 209.72 370.969 209.58C351.709 209.39 332.439 209.32 313.159 209.18C311.419 209.16 309.628 209.47 307.928 208.76Z" fill="#E4AA9C"/>
<path fill-rule="evenodd" clip-rule="evenodd" d="M672.739 187.63C675.199 180.96 678.919 174.91 682.109 168.63C682.379 168.1 682.715 167.606 683.109 167.16C685.329 164.66 687.209 164.96 688.109 168.16C688.554 170.279 688.838 172.429 688.959 174.59C688.939 175.13 689.043 175.667 689.261 176.161C689.479 176.654 689.807 177.092 690.219 177.44C694.579 174.44 695.869 168.77 700.389 165.77C696.998 174.544 692.988 183.065 688.389 191.27C686.039 184.85 687.089 179.07 684.209 173.75C681.469 175.97 680.469 178.99 678.789 181.54C677.109 184.09 676.629 187.13 673.569 188.43L672.739 187.63Z" fill="#F9E8E2"/>
<path fill-rule="evenodd" clip-rule="evenodd" d="M248.479 192.4C234.889 192.62 221.289 192.75 207.709 193.05C200.029 193.21 192.359 193.62 184.709 193.91C181.751 194.065 178.791 193.668 175.979 192.74C175.694 192.652 175.448 192.471 175.279 192.226C175.11 191.981 175.029 191.686 175.049 191.39C175.049 190.49 175.479 189.81 176.319 189.71C177.496 189.599 178.681 189.599 179.859 189.71C195.399 190.46 210.959 190.32 226.529 190.5C233.809 190.58 241.099 190.73 248.379 190.85L248.479 192.4Z" fill="#F9E8E2"/>
<path fill-rule="evenodd" clip-rule="evenodd" d="M409.879 210.24C409.879 209.76 409.989 209.24 410.039 208.79C423.639 208.29 437.219 208.57 450.819 208.79C465.589 209.03 480.369 208.85 495.139 209.35L494.989 211.13C466.609 211.77 438.229 211.82 409.879 210.24Z" fill="#F9E8E2"/>
<path fill-rule="evenodd" clip-rule="evenodd" d="M61.7393 176.83C67.7393 174.28 73.3793 173.73 78.9993 173.65C100.919 173.27 122.799 174.55 144.689 175.57C148.804 175.713 152.907 176.091 156.979 176.7C141.239 177.98 125.529 176.56 109.819 176.13C94.1092 175.7 78.2793 177.05 61.7393 176.83Z" fill="#E4AA9C"/>
<path d="M690.339 219.92C691.799 221.76 693.949 221.7 695.779 221.74C716.589 222.14 737.409 222.42 758.219 222.74C758.219 222.29 758.219 221.85 758.219 221.39C747.799 220 693.799 218.75 690.339 219.92Z" fill="#F9E8E2"/>
<path fill-rule="evenodd" clip-rule="evenodd" d="M494.989 211.13L495.139 209.35C501.435 208.933 507.753 208.997 514.039 209.54C527.419 210.38 540.819 210.16 554.209 210.6C558.209 210.73 562.079 210.4 565.609 208.16C566.759 211.54 565.729 213.24 562.249 213.31C560.679 213.31 559.099 213.6 557.549 213.52C538.269 212.63 518.999 211.33 499.689 211.52C498.117 211.47 496.548 211.34 494.989 211.13Z" fill="#E4AA9C"/>
<path fill-rule="evenodd" clip-rule="evenodd" d="M499.97 11.4401L544.84 10.1601C547.13 10.1001 549.58 9.69013 551.56 12.9001C542.56 13.7401 534.07 12.6301 525.56 12.8001C517.05 12.9701 508.62 12.7001 500.16 12.6301C500.13 12.2301 500.04 11.8401 499.97 11.4401Z" fill="#F9E8E2"/>
<path fill-rule="evenodd" clip-rule="evenodd" d="M356.269 109.51C359.819 113.75 359.849 118.87 356.349 122.37C352.399 126.31 347.429 125.88 344.509 121.21C342.739 118.38 341.569 115.33 342.269 111.61C346.659 117.82 351.539 117 356.269 109.51Z" fill="#F9E8E2"/>
<path fill-rule="evenodd" clip-rule="evenodd" d="M449.239 193.28C406.529 194.83 386.349 194.53 382.109 192.28C388.889 190.6 417.579 191 449.239 193.28Z" fill="#F9E8E2"/>
<path fill-rule="evenodd" clip-rule="evenodd" d="M65.1885 50.9997C65.5185 49.5197 66.7586 49.4697 67.9086 49.2297C72.3286 48.3297 74.5286 45.2897 75.3986 41.1397C76.3986 36.5397 77.2085 31.9097 78.0885 27.2897C78.4885 25.2897 78.8885 23.1697 79.3285 20.9297C80.1685 21.4597 80.7386 21.6197 80.7686 21.8797C81.7686 28.6797 82.3885 35.5497 80.3785 42.2197C78.5285 48.3097 72.2685 51.6897 65.1885 50.9997Z" fill="#F9E8E2"/>
<path fill-rule="evenodd" clip-rule="evenodd" d="M248.479 192.41L248.359 190.81C253.839 189.81 259.359 190.4 264.839 190.49C282.339 190.79 299.839 191.317 317.339 192.07C294.379 192.73 271.429 192.89 248.479 192.41Z" fill="#E4AA9C"/>
<path fill-rule="evenodd" clip-rule="evenodd" d="M485.239 193.49C508.239 190.15 530.989 193.28 553.839 192.44C553.559 194.93 552.089 195 550.739 194.99C546.799 194.93 542.869 194.7 538.929 194.64C523.189 194.36 507.449 194.084 491.709 193.81C489.559 193.76 487.399 193.6 485.239 193.49Z" fill="#E4AA9C"/>
<path fill-rule="evenodd" clip-rule="evenodd" d="M326.609 224.64C328.609 224.5 329.729 224.33 330.889 224.35C335.519 224.44 336.389 225.01 336.829 229.78C337.199 233.84 336.899 237.96 336.899 242.78C334.179 240.11 333.369 236.86 331.759 234.16C330.149 231.46 328.609 228.37 326.609 224.64Z" fill="#F9E8E2"/>
<path fill-rule="evenodd" clip-rule="evenodd" d="M611.489 220.53C608.949 226.216 605.675 231.545 601.749 236.38C601.749 231.83 601.749 227.27 601.749 222.71C601.71 222.418 601.739 222.12 601.833 221.841C601.927 221.561 602.084 221.307 602.291 221.097C602.499 220.887 602.752 220.728 603.031 220.632C603.309 220.535 603.607 220.504 603.899 220.54C606.199 220.51 608.489 220.53 611.489 220.53Z" fill="#F9E8E2"/>
<path fill-rule="evenodd" clip-rule="evenodd" d="M21.0088 175.34C31.1888 174.24 40.5588 172.46 49.8888 175.73C39.7388 177.33 26.9588 177.26 21.0088 175.34Z" fill="#F9E8E2"/>
<path fill-rule="evenodd" clip-rule="evenodd" d="M115.339 57.2505C119.439 54.3305 120.419 50.6005 120.529 46.2505C120.689 39.9905 121.359 33.7405 121.849 27.4805C121.999 25.5905 121.939 23.6005 123.949 21.4805C123.529 28.3105 123.159 34.4805 122.749 40.6505C122.429 45.5405 122.069 50.4305 121.749 55.3205C121.279 60.8305 121.009 60.9405 115.339 57.2505Z" fill="#E4AA9C"/>
<path fill-rule="evenodd" clip-rule="evenodd" d="M115.209 20.3701C116.679 25.4301 115.209 43.5501 113.129 49.0001C110.809 48.5401 110.599 46.2801 109.559 44.7901C108.519 43.3001 108.869 42.4801 110.849 42.1301C113.269 41.7001 112.679 39.3901 112.849 37.8001C113.659 32.0001 113.479 26.0001 115.209 20.3701Z" fill="#F9E8E2"/>
<path fill-rule="evenodd" clip-rule="evenodd" d="M672.599 166.27C672.039 179.89 665.389 191.13 656.599 194.18C656.38 193.213 656.507 192.199 656.958 191.316C657.409 190.434 658.157 189.737 659.069 189.35C664.319 186.87 666.499 182.15 668.339 177.08C669.549 173.87 669.939 170.31 672.599 166.27Z" fill="#F9E8E2"/>
<path fill-rule="evenodd" clip-rule="evenodd" d="M648.469 177.29C644.699 177.21 642.749 174.71 643.589 170.99C643.659 170.629 643.81 170.287 644.029 169.99C644.959 168.92 650.639 168.62 651.909 169.67C652.762 170.347 653.371 171.283 653.644 172.337C653.916 173.391 653.837 174.505 653.419 175.51C652.579 178.09 650.329 177.28 648.469 177.29Z" fill="#F9E8E2"/>
<path fill-rule="evenodd" clip-rule="evenodd" d="M489.159 177.05C489.102 176.94 489.072 176.818 489.072 176.695C489.072 176.571 489.102 176.449 489.159 176.34L517.539 176.08C526.419 176 535.299 175.92 544.189 175.89C546.329 175.89 548.479 176.09 552.009 176.28C549.729 177.233 547.247 177.601 544.789 177.35C530.789 177.35 516.789 177.24 502.789 177.07C498.199 177 493.679 178 489.159 177.05Z" fill="#E4AA9C"/>
<path fill-rule="evenodd" clip-rule="evenodd" d="M321.899 231.86C324.659 236.86 327.499 241.86 330.159 246.86C330.689 247.86 332.049 249.43 330.159 250.42C328.269 251.41 327.029 250.27 326.399 248.65C324.399 243.51 322.519 238.34 320.599 233.16L321.899 231.86Z" fill="#F9E8E2"/>
<path fill-rule="evenodd" clip-rule="evenodd" d="M96.7386 21L100.329 27.68C96.6886 27.54 95.0987 28.68 95.4087 32.34C95.8587 37.79 95.5286 43.34 95.5286 48.7C93.3586 49.18 92.9686 47.92 92.9986 46.79C93.1586 38.15 94.5686 29.63 95.3786 21.04L96.7386 21Z" fill="#F9E8E2"/>
<path fill-rule="evenodd" clip-rule="evenodd" d="M48.209 200C48.209 199.51 48.2691 199 48.2991 198.52C63.4591 198.52 78.6291 198.36 93.7791 199.89C88.5891 199.89 83.409 199.8 78.229 199.89C70.169 200.05 62.0891 200.37 54.0291 200.54C52.0791 200.57 50.069 200.9 48.209 200Z" fill="#E4AA9C"/>
<path fill-rule="evenodd" clip-rule="evenodd" d="M344.428 228.05C344.428 231.64 344.368 235.25 344.428 238.84C344.374 241.213 344.712 243.578 345.428 245.84C345.888 247.1 344.628 247.38 343.698 247.67C342.768 247.96 341.979 247.67 341.899 246.77C341.263 240.509 341.601 234.188 342.899 228.03L344.428 228.05Z" fill="#F9E8E2"/>
<path fill-rule="evenodd" clip-rule="evenodd" d="M706.199 173.7C706.199 177.31 710.199 175.24 711.589 177.87C708.099 177.63 704.879 177.6 703.949 181.87C702.949 186.7 707.319 186.76 709.729 188.58C709.399 188.88 709.279 189.08 709.149 189.08C699.459 189.55 699.149 189.21 702.869 180.31C703.799 178.05 704.049 175.31 706.309 173.76L706.199 173.7Z" fill="#F9E8E2"/>
<path fill-rule="evenodd" clip-rule="evenodd" d="M563.979 204.51C561.669 200.51 559.979 196.36 562.139 191.71C562.889 190.05 562.139 188.66 561.479 187.24C560.819 185.82 561.61 185.08 562.9 184.74C564.58 184.28 565.619 184.86 565.609 186.68C565.609 192.74 565.47 198.82 565.4 204.88L563.979 204.51Z" fill="#F9E8E2"/>
<path fill-rule="evenodd" clip-rule="evenodd" d="M499.969 11.4404C500.039 11.8404 500.129 12.2304 500.199 12.6404C497.199 13.8004 493.999 13.5404 490.869 13.5504C483.199 13.5504 475.529 13.5504 467.869 13.5504C467.905 13.218 467.905 12.8828 467.869 12.5504C478.549 11.7704 489.249 11.0504 499.969 11.4404Z" fill="#E4AA9C"/>
<path fill-rule="evenodd" clip-rule="evenodd" d="M114.079 193.23C123.309 193.5 138.019 192.23 152.739 193.23C138.029 194.43 123.309 192.9 114.079 193.23Z" fill="#E4AA9C"/>
<path fill-rule="evenodd" clip-rule="evenodd" d="M64.6094 193.34C64.6094 192.81 64.6593 192.28 64.6793 191.75C72.7693 191.03 80.6794 193.37 88.7394 193.13C91.4794 193.06 94.2394 193.13 96.9794 193.13C86.1994 193.18 75.3994 194 64.6094 193.34Z" fill="#E4AA9C"/>
<path fill-rule="evenodd" clip-rule="evenodd" d="M129.679 32.7197C131.369 34.8397 133.859 34.4497 136.129 34.7197C138.029 34.9097 140.129 34.5097 141.329 36.9097C137.649 38.9097 133.409 38.7197 129.329 40.0797C128.119 37.5897 128.639 35.1797 129.119 32.7697L129.419 32.8797L129.679 32.7197Z" fill="#F9E8E2"/>
<path fill-rule="evenodd" clip-rule="evenodd" d="M714.509 193.9C714.509 194.33 714.509 194.78 714.589 195.21C711.639 196.21 708.439 196.21 705.719 198.21C702.779 200.34 700.189 198.21 697.509 195.89C703.182 195.224 708.849 194.56 714.509 193.9Z" fill="#F9E8E2"/>
<path fill-rule="evenodd" clip-rule="evenodd" d="M322.109 214.73C326.729 214.17 330.949 215.18 335.199 215.24C335.689 215.24 336.409 215.5 336.349 216.24C336.349 216.8 336.229 217.67 335.899 217.83C332.969 219.28 329.799 218.91 326.699 218.83C324.379 218.71 322.739 217.5 322.109 214.73Z" fill="#F9E8E2"/>
<path fill-rule="evenodd" clip-rule="evenodd" d="M398.33 11.5195L423.71 12.5195C421.14 15.4495 418.18 14.1295 415.37 14.0795C412.56 14.0295 409.49 13.8795 406.55 13.6695C403.61 13.4595 400.76 13.8795 398.06 13.0895C398.16 12.5795 398.24 12.0495 398.33 11.5195Z" fill="#F9E8E2"/>
<path fill-rule="evenodd" clip-rule="evenodd" d="M467.869 12.5298C467.909 12.8618 467.909 13.1977 467.869 13.5298L440.938 14.6498C440.798 11.8698 442.569 12.3998 443.709 12.3998C451.739 12.3898 459.819 12.4798 467.869 12.5298Z" fill="#F9E8E2"/>
<path fill-rule="evenodd" clip-rule="evenodd" d="M706.309 173.79C705.829 171.23 707.399 169.25 708.309 167.15C710.549 162.25 711.809 162.06 717.309 166.15C711.109 165.74 709.429 170.77 706.109 173.69C706.172 173.73 706.239 173.763 706.309 173.79Z" fill="#F9E8E2"/>
<path fill-rule="evenodd" clip-rule="evenodd" d="M139.989 54.8398C129.769 56.0898 127.7 55.2498 127.89 49.8398C130.74 54.1098 135.919 51.9398 139.989 54.8398Z" fill="#F9E8E2"/>
<path fill-rule="evenodd" clip-rule="evenodd" d="M517.279 151.91L517.449 151.71C523.559 150.55 529.449 153.45 535.529 153.11H521.099C519.739 153.1 518.329 153 517.279 151.91Z" fill="#E4AA9C"/>
<path d="M183.188 221.82C182.898 220.51 182.559 219.22 182.339 217.9C181.639 213.61 181.658 213.6 175.938 213.46L182.379 221.97C182.651 221.935 182.921 221.884 183.188 221.82Z" fill="#F9E8E2"/>
<path fill-rule="evenodd" clip-rule="evenodd" d="M438.989 14.0596C433.429 14.9996 428.859 15.2496 423.339 13.8296C429.009 11.8396 434.099 11.8896 438.989 14.0596Z" fill="#F9E8E2"/>
<path fill-rule="evenodd" clip-rule="evenodd" d="M231.909 240C231.349 243.23 230.509 245.76 227.369 247.56C227.849 243.49 227.849 243.49 231.909 240Z" fill="#F9E8E2"/>
<path d="M317.49 222.71C316.09 220.02 316.81 216.71 313.88 213.2C313.79 218.48 314.29 219.75 317.49 222.71Z" fill="#E4AA9C"/>
<path fill-rule="evenodd" clip-rule="evenodd" d="M695.56 205.73C696.22 203.15 693 203.09 692.56 201.24C693.119 200.994 693.729 200.88 694.34 200.91C694.951 200.939 695.546 201.111 696.08 201.41C697.27 201.9 699.24 201.82 699.08 203.64C698.94 205.64 697.21 205.87 695.52 205.64L695.56 205.73Z" fill="#E4AA9C"/>
<path fill-rule="evenodd" clip-rule="evenodd" d="M746.359 199.69C747.559 202.11 745.519 204.57 746.439 206.99L746.539 206.85C745.259 206.48 745.099 205.19 744.439 204.32C742.349 201.59 743.649 200.32 746.509 199.78L746.359 199.69Z" fill="#FDF9F7"/>
<path d="M317.459 224.89C318.029 227.89 318.719 230.72 320.569 233.18L321.899 231.86C320.809 229.33 320.029 226.6 317.459 224.89Z" fill="#E4AA9C"/>
<path d="M306.369 218.71C307.493 219.891 308.424 221.241 309.129 222.71C308.129 219.21 307.129 216.93 304.809 215.36C304.539 215.78 304.269 216.2 303.989 216.61V216.7C304.853 217.282 305.651 217.956 306.369 218.71Z" fill="#E4AA9C"/>
<path fill-rule="evenodd" clip-rule="evenodd" d="M746.439 207C749.019 206.44 750.56 207.9 752.3 209.82C748.78 211.19 746.81 210.57 746.54 206.82L746.439 207Z" fill="#FDF9F7"/>
<path fill-rule="evenodd" clip-rule="evenodd" d="M129.679 32.7198L129.38 32.8298L129.089 32.7198C128.429 30.1998 128.85 27.7198 129.26 23.8398C130.002 26.7404 130.145 29.7621 129.679 32.7198Z" fill="#E4AA9C"/>
<path fill-rule="evenodd" clip-rule="evenodd" d="M695.51 205.67C694.51 207.37 692.909 207.67 690.939 207.85C691.699 204.79 693.809 205.69 695.559 205.73L695.51 205.67Z" fill="#E4AA9C"/>
<path fill-rule="evenodd" clip-rule="evenodd" d="M132.46 20.7996C134.02 18.9996 135.87 19.5196 138.54 20.1196C136.559 20.7683 134.459 20.9731 132.39 20.7196L132.46 20.7996Z" fill="#E4AA9C"/>
<path fill-rule="evenodd" clip-rule="evenodd" d="M330.169 106.2C330.144 106.335 330.091 106.463 330.013 106.577C329.936 106.69 329.836 106.787 329.719 106.86C329.603 106.933 329.473 106.981 329.337 107.002C329.201 107.023 329.062 107.015 328.929 106.98C328.789 106.958 328.655 106.903 328.54 106.819C328.425 106.735 328.331 106.625 328.268 106.498C328.204 106.37 328.172 106.23 328.174 106.087C328.176 105.945 328.212 105.805 328.279 105.68C328.386 105.524 328.525 105.393 328.688 105.296C328.85 105.199 329.031 105.139 329.219 105.12C329.899 105 330.279 105.4 330.169 106.2Z" fill="#E4AA9C"/>
<path fill-rule="evenodd" clip-rule="evenodd" d="M694.409 189.15C694.149 188.58 694.409 188.21 694.879 187.92C694.959 188.07 695.119 188.22 695.109 188.35C695.049 188.81 695.109 189.49 694.299 189.01C694.279 189 694.409 189.15 694.409 189.15Z" fill="#FDF9F7"/>
<path fill-rule="evenodd" clip-rule="evenodd" d="M132.389 20.7197C132.188 20.9704 131.971 21.2076 131.739 21.4297C131.679 21.4797 131.479 21.3697 131.349 21.3297L132.469 20.7897L132.389 20.7197Z" fill="#E4AA9C"/>
<path fill-rule="evenodd" clip-rule="evenodd" d="M673.469 188.38C673.139 188.75 672.709 189.22 672.279 188.76C671.849 188.3 672.279 187.9 672.719 187.64C672.969 187.87 673.229 188.13 673.469 188.38Z" fill="#F9E8E2"/>
<path fill-rule="evenodd" clip-rule="evenodd" d="M563.979 204.51L565.41 204.89C565.2 205.11 565 205.52 564.79 205.52C564.19 205.53 564.029 205 563.979 204.51Z" fill="#E4AA9C"/>
<path fill-rule="evenodd" clip-rule="evenodd" d="M438.929 117.81C438.329 109.81 436.649 103.03 437.109 95.9996C439.319 95.7396 439.329 96.8196 439.539 97.7596C439.828 99.2983 440.198 100.82 440.649 102.32C441.019 103.4 441.589 104.77 442.909 104.71C444.579 104.63 445.009 103 445.119 101.71C445.141 99.3267 445.352 96.9493 445.749 94.5996C449.219 98.9196 447.749 104.77 450.379 109.83C452.799 106.58 455.379 104 459.449 103.64C462.769 103.34 463.809 104.05 464.389 107.15C466.039 116.03 465.769 116.35 456.829 117.05C455.275 117.332 453.67 117.089 452.269 116.36C451.729 116.03 450.999 114.84 450.439 115.97C449.309 118.21 448.599 117.44 447.929 115.79C447.47 114.699 447.105 113.572 446.839 112.42C446.798 112.028 446.677 111.649 446.484 111.306C446.29 110.963 446.028 110.664 445.714 110.426C445.4 110.189 445.04 110.019 444.657 109.927C444.275 109.834 443.877 109.822 443.489 109.89C441.489 109.99 441.549 111.38 441.329 112.76C441.356 113.731 441.152 114.695 440.735 115.573C440.318 116.45 439.699 117.217 438.929 117.81Z" fill="#DF2A3C"/>
<path fill-rule="evenodd" clip-rule="evenodd" d="M414.679 122C416.249 121.2 417.359 122 418.509 122C419.894 122.071 421.263 121.677 422.397 120.879C423.532 120.082 424.367 118.928 424.769 117.6C425.699 114.87 424.619 113.44 421.769 113.72C419.229 113.97 416.669 114.22 414.149 114.72C411.629 115.22 410.489 114.22 410.149 111.8C409.819 109.8 410.439 106.8 407.639 106.44C404.189 105.95 405.009 109.68 403.779 111.44C403.329 112.08 403.039 112.81 401.869 113.03C401.479 111.82 401.039 110.59 400.689 109.33C399.869 106.48 400.979 104.33 403.269 102.68C405.559 101.03 407.929 101.59 409.729 103.26C412.599 105.97 414.919 105.93 418.409 103.88C423.839 100.68 427.359 102.76 428.569 108.88C430.029 116.36 428.179 122.01 423.209 125.2C419.099 127.79 417.049 127.07 414.679 122Z" fill="#DF2A3C"/>
<path fill-rule="evenodd" clip-rule="evenodd" d="M512.369 116.26C510.699 107.75 511.459 105.77 517.999 101.46C520.089 102.16 519.529 105 521.739 105.98C523.289 104.41 524.869 102.75 526.539 101.18C527.089 100.66 527.889 100.25 528.539 101.18C528.75 101.383 528.883 101.653 528.914 101.944C528.945 102.235 528.872 102.528 528.709 102.77C527.829 104.05 526.999 105.38 526.159 106.67C527.039 108.28 528.779 108.4 530.099 109.18C533.479 111.18 533.819 112.27 531.839 115.69C528.629 121.23 518.369 122.47 513.979 117.84C513.459 117.29 512.889 116.84 512.349 116.26H512.369ZM528.959 112.59C525.959 111.7 522.549 112.59 521.089 109.22C520.759 108.43 520.089 108.76 519.609 109.03C517.999 110.03 515.679 110.85 515.959 113.11C516.034 113.649 516.216 114.168 516.496 114.635C516.775 115.102 517.145 115.509 517.584 115.831C518.024 116.152 518.523 116.383 519.053 116.508C519.582 116.633 520.132 116.651 520.669 116.56C523.679 116.26 526.739 115.64 528.959 112.59Z" fill="#DF2A3C"/>
<path fill-rule="evenodd" clip-rule="evenodd" d="M491.149 119.14C490.459 117.68 490.149 116.97 489.809 116.31C489.209 115.21 489.309 113.19 487.259 113.8C485.479 114.32 483.109 114.16 482.629 116.74C482.299 118.48 482.169 120.27 481.699 121.97C481.379 123.12 481.699 125.16 479.699 124.9C478.119 124.7 478.589 123.05 478.569 121.99C478.569 116.65 478.499 111.33 478.669 105.99C478.799 102.13 481.429 100.32 484.999 101.56C486.342 101.906 487.544 102.661 488.439 103.72C490.229 106.54 491.699 105.38 493.319 103.57C493.867 108.859 493.123 114.202 491.149 119.14Z" fill="#DF2A3C"/>
<path fill-rule="evenodd" clip-rule="evenodd" d="M388.659 96.1299C390.379 97.5799 390.389 99.2399 390.799 100.72C391.249 102.39 392.199 103.86 394.019 103.46C397.019 102.81 397.429 104.73 397.589 106.67C397.839 109.67 399.589 112.49 398.479 116.35C395.249 113.44 395.769 109.35 393.349 106.64C391.069 107.82 392.689 110.74 390.859 112.27C388.939 112.19 389.099 109.43 387.339 109.11C382.819 112.96 382.729 112.95 374.789 107.73C375.369 105.33 377.059 103.63 378.789 102.08C380.519 100.53 381.999 99.3599 384.249 101.79C386.249 103.96 387.249 102.37 387.359 100.1C387.419 98.7699 387.079 97.3499 388.659 96.1299ZM378.139 107.23C381.869 107.35 384.209 108.96 387.089 108.23C384.189 103.13 384.189 103.13 378.139 107.23Z" fill="#DF2A3C"/>
<path fill-rule="evenodd" clip-rule="evenodd" d="M512.319 116.23C509.449 116.51 512.229 119.9 509.639 120.55C507.089 118.1 507.289 114.76 507.279 111.55C507.279 108.09 506.999 104.8 502.929 103C497.929 106.87 501.129 112.76 499.639 117.47C495.309 113.28 495.139 102.78 499.329 98.9905C502.379 96.2405 507.999 98.4305 509.549 103.15C510.517 106.361 510.936 109.711 510.789 113.06C510.789 114.34 510.439 115.9 512.359 116.3L512.319 116.23Z" fill="#DF2A3C"/>
<path fill-rule="evenodd" clip-rule="evenodd" d="M541.74 107.86C542.85 109.67 545.08 109.86 546.47 111.22C548.58 113.28 549.02 115.56 547.02 117.37C543.789 120.25 539.95 122.366 535.79 123.56C535.225 123.777 534.601 123.782 534.033 123.575C533.464 123.367 532.991 122.96 532.699 122.43C531.909 120.82 533.47 120.55 534.42 120.06C537.16 118.64 539.93 117.27 542.62 115.91C542.11 113.4 540.259 112.42 539.059 110.91C536.639 107.91 536.729 106.54 539.679 104.15C542.109 102.15 544.869 101.62 548.559 102.36C546.639 105.09 543.58 105.77 541.74 107.86Z" fill="#DF2A3C"/>
<path fill-rule="evenodd" clip-rule="evenodd" d="M311.209 102.9C312.979 105.58 314.489 107.9 315.969 110.15C316.379 110.78 316.879 111.51 316.299 112.28C316.028 112.565 315.691 112.777 315.317 112.898C314.943 113.018 314.545 113.043 314.159 112.97C309.779 112.7 306.039 107.82 306.359 102.84C306.619 98.8403 310.669 95.3603 314.809 95.4703C316.279 95.4703 317.669 95.9403 318.189 97.3103C318.709 98.6803 317.189 99.1903 316.259 99.7903C314.789 100.76 313.289 101.63 311.209 102.9Z" fill="#DF2A3C"/>
<path fill-rule="evenodd" clip-rule="evenodd" d="M466.359 112C466.297 110.327 466.59 108.661 467.219 107.11C468.969 103.11 472.499 102.63 475.449 105.96C475.656 106.17 475.815 106.423 475.916 106.701C476.018 106.978 476.058 107.275 476.035 107.569C476.013 107.864 475.927 108.15 475.785 108.409C475.642 108.668 475.446 108.893 475.209 109.07C470.899 113.38 470.679 118.59 471.599 124.07C471.759 125 471.929 126.15 470.599 126.47C468.879 126.9 468.669 125.47 468.459 124.39C467.659 120.16 466.559 116 466.359 112Z" fill="#DF2A3C"/>
<path fill-rule="evenodd" clip-rule="evenodd" d="M692.879 87.4598C695.329 86.8598 697.269 87.3698 699.199 87.6398C704.199 88.3298 704.199 88.3398 705.099 93.3298C705.499 95.6298 706.369 97.7198 708.619 98.3998C711.489 99.2598 712.009 101.34 712.429 103.76C714.939 118.33 717.529 132.89 719.999 147.46C720.269 149.09 720.999 151.34 719.179 152.29C717.359 153.24 715.359 151.87 713.809 150.68C711.129 148.6 710.299 145.51 709.809 142.36C709.359 139.46 708.929 136.58 706.519 133.94C706.519 137.65 706.519 141.35 706.519 145.07C706.519 148.07 706.239 150.98 704.519 153.6C701.849 157.8 698.519 158.54 694.759 155.18C692.824 153.51 690.382 152.542 687.829 152.43C675.662 151.117 663.416 150.703 651.189 151.19C644.189 151.5 643.309 150.54 643.189 143.56C643.049 129.346 642.925 115.136 642.819 100.93C642.819 99.9298 642.879 98.9298 642.819 97.9298C642.629 95.0498 644.039 94.2798 646.759 94.2898C659.399 94.4098 672.029 94.2898 684.649 94.2898H685.839C692.909 94.3798 692.909 94.3798 692.879 87.4598ZM692.319 124.8H693.039C693.039 117.89 693.099 110.98 693.039 104.07C692.979 99.4798 691.759 97.7998 687.839 97.7398C675.409 97.5298 662.959 97.2098 650.529 98.4198C648.169 98.6598 647.029 99.3098 647.039 101.97C647.139 115.803 647.139 129.633 647.039 143.46C647.039 146.02 647.979 146.98 650.449 147.07C663.449 147.56 676.449 148.07 689.519 148.71C692.069 148.84 692.399 147.71 692.369 145.55C692.259 138.63 692.319 131.72 692.319 124.8Z" fill="#DF2A3C"/>
<path fill-rule="evenodd" clip-rule="evenodd" d="M723.079 95.4004C728.079 94.0504 730.959 97.0504 733.079 101.67C740.253 117.45 747.473 133.227 754.74 149C755.105 149.699 755.416 150.424 755.67 151.17C757.08 155.8 756.159 156.96 751.459 156.3C746.609 155.62 741.95 153.9 736.92 153.93C733.56 153.93 731.739 151.42 730.709 148.42C729.379 144.5 728.09 140.58 726.77 136.65C723.17 125.984 719.563 115.35 715.949 104.75C713.149 96.5004 713.739 95.6204 723.079 95.4004ZM751.01 150.92C743.58 134.68 736.459 119.1 729.349 103.49C727.669 99.8204 724.549 99.1304 720.979 99.3004C718.979 99.4004 717.98 100.14 718.8 102.3C719.27 103.59 719.54 104.97 720 106.3C724.526 119.134 729.08 131.964 733.66 144.79C734.43 146.96 734.999 149.56 737.939 149.89C742.029 150.29 746.04 151.6 751.01 150.92Z" fill="#DF2A3C"/>
<path fill-rule="evenodd" clip-rule="evenodd" d="M528.949 112.59C526.759 115.59 523.679 116.26 520.679 116.59C520.141 116.68 519.591 116.662 519.061 116.536C518.53 116.411 518.031 116.179 517.592 115.857C517.152 115.534 516.782 115.126 516.503 114.658C516.225 114.189 516.043 113.67 515.969 113.13C515.689 110.87 517.969 110.07 519.619 109.06C520.039 108.79 520.749 108.45 521.099 109.24C522.529 112.63 525.969 111.7 528.949 112.59Z" fill="#F9E8E2"/>
<path fill-rule="evenodd" clip-rule="evenodd" d="M378.14 107.23C384.14 103.14 384.14 103.14 387.09 108.23C384.21 109 381.87 107.35 378.14 107.23Z" fill="#FDF9F7"/>
<path fill-rule="evenodd" clip-rule="evenodd" d="M692.319 124.8C692.319 131.72 692.259 138.63 692.319 145.54C692.319 147.67 692.009 148.82 689.459 148.7C676.459 148.07 663.459 147.55 650.389 147.06C647.919 146.96 646.959 146.01 646.979 143.45C647.065 129.623 647.065 115.79 646.979 101.95C646.979 99.2998 648.119 98.6398 650.479 98.4098C662.899 97.1998 675.349 97.5198 687.779 97.7298C691.699 97.7898 692.919 99.4798 692.979 104.05C693.069 110.96 692.979 117.87 692.979 124.79L692.319 124.8Z" fill="#FDF9F7"/>
<path fill-rule="evenodd" clip-rule="evenodd" d="M751.009 150.92C746.009 151.6 742.009 150.29 737.939 149.85C734.999 149.53 734.429 146.92 733.649 144.75C729.056 131.937 724.502 119.107 719.989 106.26C719.539 104.97 719.269 103.6 718.799 102.26C718.019 100.11 719.009 99.37 720.979 99.26C724.559 99.09 727.679 99.77 729.339 103.45C736.459 119.1 743.579 134.68 751.009 150.92Z" fill="#FDF9F7"/>
</svg>
